<?xml version="1.0" encoding="UTF-8"?>
<!DOCTYPE svg PUBLIC "-//W3C//DTD SVG 1.1//EN" "http://www.w3.org/Graphics/SVG/1.1/DTD/svg11.dtd">
<!-- Creator: CorelDRAW X7 -->
<svg xmlns="http://www.w3.org/2000/svg" xml:space="preserve" width="9.0625in" height="5.08333in" version="1.1" style="shape-rendering:geometricPrecision; text-rendering:geometricPrecision; image-rendering:optimizeQuality; fill-rule:evenodd; clip-rule:evenodd"
viewBox="0 0 9062 5083"
 xmlns:xlink="http://www.w3.org/1999/xlink">
 <defs>
  <style type="text/css">
   <![CDATA[
    .fil0 {fill:none}
    .fil1 {fill:#2B2A29;fill-rule:nonzero}
   ]]>
  </style>
 </defs>
 <g id="Layer_x0020_1">
  <metadata id="CorelCorpID_0Corel-Layer"/>
  <rect class="fil0" x="2" y="-3" width="9058" height="5088"/>
  <polygon class="fil1" points="146,240 111,279 111,372 25,372 25,17 111,17 111,174 140,129 217,17 323,17 203,174 323,372 221,372 "/>
  <path id="1" class="fil1" d="M486 17l86 0 0 244c0,23 -6,43 -16,61 -11,17 -25,31 -44,41 -19,10 -40,14 -63,14 -39,0 -69,-9 -90,-29 -22,-19 -32,-47 -32,-83l86 0c0,16 2,28 8,35 6,8 15,11 28,11 12,0 21,-4 28,-13 6,-9 9,-21 9,-37l0 -244z"/>
  <path id="2" class="fil1" d="M809 279c0,-13 -4,-23 -13,-30 -9,-7 -25,-15 -47,-22 -22,-8 -41,-15 -55,-22 -46,-22 -69,-54 -69,-93 0,-20 6,-37 17,-52 12,-15 28,-27 49,-35 21,-9 45,-13 71,-13 25,0 48,5 69,14 20,9 36,22 47,39 11,16 17,36 17,57l-86 0c0,-14 -4,-26 -13,-34 -9,-8 -21,-12 -36,-12 -15,0 -27,4 -36,11 -9,6 -14,15 -14,25 0,10 5,18 15,25 10,8 27,15 52,23 24,8 44,17 60,26 38,22 58,53 58,92 0,31 -12,55 -35,73 -24,18 -56,26 -97,26 -29,0 -55,-5 -78,-15 -23,-10 -41,-24 -53,-42 -12,-18 -18,-39 -18,-62l86 0c0,19 5,33 15,42 10,9 26,14 48,14 14,0 25,-3 34,-9 8,-7 12,-15 12,-26z"/>
  <path id="3" class="fil1" d="M1226 252c-1,25 -8,47 -20,66 -12,19 -29,33 -51,44 -22,10 -47,15 -76,15 -47,0 -83,-15 -110,-45 -27,-31 -40,-74 -40,-129l0 -18c0,-35 6,-65 18,-91 12,-26 29,-46 52,-61 23,-14 49,-21 79,-21 43,0 78,11 104,34 26,23 41,54 45,94l-86 0c0,-22 -6,-37 -16,-47 -10,-9 -26,-14 -47,-14 -21,0 -37,8 -47,24 -10,16 -15,41 -15,76l0 26c0,38 4,65 14,81 10,16 26,24 49,24 20,0 35,-4 45,-13 11,-10 16,-25 17,-45l85 0z"/>
  <polygon id="4" class="fil1" points="1487,221 1353,221 1353,306 1512,306 1512,372 1267,372 1267,17 1512,17 1512,83 1353,83 1353,158 1487,158 "/>
  <path id="5" class="fil1" d="M1854 279c0,-13 -4,-23 -13,-30 -9,-7 -24,-15 -47,-22 -22,-8 -40,-15 -54,-22 -46,-22 -69,-54 -69,-93 0,-20 5,-37 17,-52 11,-15 28,-27 49,-35 20,-9 44,-13 70,-13 26,0 49,5 69,14 20,9 36,22 47,39 12,16 17,36 17,57l-85 0c0,-14 -5,-26 -14,-34 -9,-8 -21,-12 -36,-12 -15,0 -27,4 -36,11 -9,6 -13,15 -13,25 0,10 5,18 14,25 10,8 27,15 52,23 25,8 45,17 60,26 39,22 58,53 58,92 0,31 -12,55 -35,73 -23,18 -56,26 -96,26 -29,0 -55,-5 -79,-15 -23,-10 -41,-24 -52,-42 -12,-18 -18,-39 -18,-62l86 0c0,19 5,33 15,42 9,9 25,14 48,14 14,0 25,-3 33,-9 8,-7 12,-15 12,-26z"/>
  <path id="6" class="fil1" d="M2076 43l0 65 43 0 0 57 -43 0 0 122c0,10 2,17 5,21 4,4 11,6 22,6 8,0 15,-1 20,-2l0 58c-15,5 -30,7 -46,7 -29,0 -49,-6 -63,-20 -13,-13 -20,-33 -20,-60l0 -132 -34 0 0 -57 34 0 0 -65 82 0z"/>
  <path id="7" class="fil1" d="M2309 344c-17,22 -41,33 -70,33 -29,0 -51,-8 -66,-25 -15,-17 -22,-41 -22,-72l0 -172 82 0 0 172c0,23 11,34 33,34 19,0 32,-7 40,-20l0 -186 83 0 0 264 -77 0 -3 -28z"/>
  <path id="8" class="fil1" d="M2424 239c0,-42 9,-75 27,-99 18,-24 43,-37 75,-37 24,0 44,10 60,28l0 -134 83 0 0 375 -74 0 -5 -28c-16,22 -38,33 -64,33 -31,0 -56,-12 -75,-36 -18,-24 -27,-58 -27,-102zm82 5c0,47 14,70 41,70 18,0 31,-8 39,-23l0 -101c-7,-15 -20,-23 -39,-23 -25,0 -39,20 -41,61l0 16z"/>
  <path id="9" class="fil1" d="M2843 377c-41,0 -73,-12 -98,-36 -25,-24 -38,-55 -38,-94l0 -7c0,-27 5,-51 15,-72 10,-20 25,-36 44,-48 19,-11 42,-17 68,-17 37,0 67,12 88,35 22,23 32,55 32,96l0 32 -163 0c3,15 9,27 19,35 10,9 23,13 39,13 26,0 46,-9 61,-27l37 44c-10,14 -25,26 -43,34 -19,8 -39,12 -61,12zm-9 -210c-24,0 -39,16 -43,48l83 0 0 -6c0,-14 -3,-24 -10,-31 -7,-7 -17,-11 -30,-11z"/>
  <path id="10" class="fil1" d="M3063 108l3 31c18,-24 43,-36 75,-36 28,0 48,9 62,25 13,17 20,41 21,74l0 170 -83 0 0 -166c0,-14 -2,-23 -8,-30 -5,-6 -15,-9 -29,-9 -16,0 -28,6 -36,19l0 186 -82 0 0 -264 77 0z"/>
  <path id="11" class="fil1" d="M3365 43l0 65 44 0 0 57 -44 0 0 122c0,10 2,17 6,21 3,4 10,6 21,6 8,0 15,-1 20,-2l0 58c-14,5 -30,7 -46,7 -28,0 -49,-6 -63,-20 -13,-13 -20,-33 -20,-60l0 -132 -34 0 0 -57 34 0 0 -65 82 0z"/>
  <path id="12" class="fil1" d="M3579 298c0,-7 -3,-12 -11,-17 -7,-4 -21,-8 -41,-13 -21,-4 -38,-10 -51,-18 -13,-7 -24,-16 -31,-27 -7,-10 -10,-22 -10,-36 0,-24 10,-44 30,-60 20,-16 46,-24 78,-24 35,0 63,8 84,24 22,16 32,37 32,62l-82 0c0,-21 -11,-32 -34,-32 -8,0 -16,3 -21,8 -6,5 -9,11 -9,18 0,7 3,13 10,18 8,4 19,8 35,11 15,3 29,6 41,10 40,14 60,39 60,74 0,24 -11,44 -32,59 -22,15 -50,22 -84,22 -22,0 -42,-4 -60,-12 -18,-8 -32,-19 -42,-33 -10,-14 -14,-29 -14,-44l76 0c1,12 5,21 13,27 7,5 17,8 30,8 11,0 19,-2 25,-7 6,-4 8,-10 8,-18z"/>
  <path id="13" class="fil1" d="M3726 128l-36 -19c14,-24 21,-47 21,-69l0 -43 60 0 0 40c0,15 -4,32 -13,49 -9,17 -19,31 -32,42z"/>
  <path id="14" class="fil1" d="M4234 252c-1,25 -7,47 -20,66 -12,19 -29,33 -51,44 -22,10 -47,15 -76,15 -46,0 -83,-15 -110,-45 -27,-31 -40,-74 -40,-129l0 -18c0,-35 6,-65 18,-91 12,-26 30,-46 52,-61 23,-14 49,-21 79,-21 44,0 78,11 104,34 27,23 41,54 45,94l-85 0c-1,-22 -6,-37 -17,-47 -10,-9 -26,-14 -47,-14 -21,0 -37,8 -46,24 -10,16 -16,41 -16,76l0 26c0,38 5,65 14,81 10,16 26,24 49,24 20,0 35,-4 46,-13 10,-10 15,-25 16,-45l85 0z"/>
  <path id="15" class="fil1" d="M4261 238c0,-26 5,-50 15,-70 10,-21 25,-37 44,-48 20,-11 42,-17 68,-17 40,0 71,13 94,37 22,25 34,58 34,100l0 3c0,41 -12,74 -35,98 -22,24 -53,36 -92,36 -38,0 -68,-11 -91,-33 -23,-23 -35,-53 -37,-92l0 -14zm82 5c0,25 4,42 12,54 7,11 19,17 34,17 29,0 44,-23 44,-68l0 -8c0,-47 -15,-71 -45,-71 -27,0 -42,20 -45,61l0 15z"/>
  <path id="16" class="fil1" d="M4709 344c-17,22 -41,33 -70,33 -29,0 -51,-8 -66,-25 -15,-17 -22,-41 -22,-72l0 -172 82 0 0 172c0,23 11,34 33,34 19,0 32,-7 40,-20l0 -186 83 0 0 264 -77 0 -3 -28z"/>
  <path id="17" class="fil1" d="M4910 108l2 31c18,-24 44,-36 76,-36 27,0 48,9 61,25 14,17 21,41 21,74l0 170 -82 0 0 -166c0,-14 -3,-23 -8,-30 -6,-6 -15,-9 -29,-9 -17,0 -29,6 -36,19l0 186 -83 0 0 -264 78 0z"/>
  <path id="18" class="fil1" d="M5228 314c11,0 20,-3 27,-9 6,-7 9,-15 9,-27l77 0c0,29 -10,53 -31,72 -21,18 -48,27 -80,27 -39,0 -69,-12 -91,-36 -22,-24 -33,-57 -33,-100l0 -3c0,-27 5,-50 14,-71 10,-20 25,-36 43,-47 19,-11 41,-17 66,-17 34,0 62,10 82,29 20,19 30,45 30,77l-77 0c0,-13 -3,-24 -10,-31 -7,-7 -16,-11 -27,-11 -21,0 -34,14 -37,41 -1,8 -2,20 -2,35 0,27 3,45 9,56 7,10 17,15 31,15z"/>
  <path id="19" class="fil1" d="M5463 372l-83 0 0 -264 83 0 0 264zm-88 -332c0,-12 4,-21 13,-29 8,-7 19,-11 33,-11 13,0 24,4 33,11 8,8 12,17 12,29 0,12 -4,22 -12,29 -9,8 -20,11 -33,11 -14,0 -25,-3 -33,-11 -9,-7 -13,-17 -13,-29z"/>
  <polygon id="20" class="fil1" points="5600,372 5517,372 5517,-3 5600,-3 "/>
  <polygon id="21" class="fil1" points="5956,372 5874,372 5874,111 5792,134 5792,71 5948,17 5956,17 "/>
  <polygon id="22" class="fil1" points="6310,61 6178,372 6091,372 6224,80 6054,80 6054,17 6310,17 "/>
  <polygon id="23" class="fil1" points="6515,251 6368,251 6368,187 6515,187 "/>
  <polygon id="24" class="fil1" points="6760,372 6678,372 6678,111 6596,134 6596,71 6752,17 6760,17 "/>
  <path id="25" class="fil1" d="M7107 112c0,17 -4,32 -13,45 -8,13 -20,24 -35,32 17,8 30,20 40,34 10,15 15,32 15,51 0,32 -11,57 -33,76 -22,18 -52,27 -90,27 -39,0 -69,-9 -92,-27 -22,-19 -33,-44 -33,-76 0,-19 5,-36 15,-50 9,-15 23,-27 41,-35 -15,-8 -27,-19 -35,-32 -9,-13 -13,-28 -13,-45 0,-31 10,-55 31,-73 21,-18 49,-27 85,-27 36,0 65,9 85,27 21,18 32,42 32,73zm-75 156c0,-15 -4,-26 -12,-34 -7,-8 -17,-12 -30,-12 -12,0 -22,4 -30,12 -7,8 -11,19 -11,34 0,14 4,25 11,34 8,8 18,12 31,12 12,0 22,-4 29,-12 8,-8 12,-20 12,-34zm-42 -193c-11,0 -19,4 -25,11 -6,7 -9,17 -9,30 0,13 3,23 9,31 6,8 14,11 26,11 11,0 19,-3 25,-11 6,-8 8,-18 8,-31 0,-12 -2,-22 -8,-30 -6,-7 -15,-11 -26,-11z"/>
  <path id="26" class="fil1" d="M156 1352l-99 0 -22 62 -33 0 91 -237 27 0 91 237 -32 0 -23 -62zm-90 -25l81 0 -40 -111 -41 111z"/>
  <path id="27" class="fil1" d="M384 1313c0,36 -6,62 -18,79 -12,17 -31,26 -57,26 -25,0 -44,-9 -56,-26 -12,-16 -18,-41 -19,-75l0 -40c0,-35 6,-61 18,-78 12,-17 31,-25 57,-25 25,0 44,8 56,24 12,17 18,42 19,76l0 39zm-30 -41c0,-26 -4,-44 -11,-56 -7,-12 -19,-17 -34,-17 -16,0 -27,5 -34,17 -7,12 -11,30 -11,54l0 48c0,26 4,44 11,57 8,12 19,18 34,18 15,0 26,-6 33,-17 7,-12 11,-30 12,-55l0 -49z"/>
  <polygon id="28" class="fil1" points="521,1414 491,1414 491,1214 430,1236 430,1209 516,1176 521,1176 "/>
  <path id="29" class="fil1" d="M753 1239c0,12 -3,22 -9,32 -6,9 -15,16 -26,21 13,6 23,13 30,24 7,10 11,21 11,34 0,21 -7,37 -21,49 -14,13 -32,19 -55,19 -23,0 -41,-6 -54,-19 -14,-12 -21,-28 -21,-49 0,-12 3,-24 10,-34 7,-11 17,-19 29,-24 -10,-5 -18,-12 -24,-22 -7,-9 -10,-19 -10,-31 0,-20 7,-36 20,-47 12,-12 29,-18 50,-18 21,0 38,6 51,18 13,11 19,27 19,47zm-24 111c0,-14 -5,-24 -13,-33 -8,-8 -19,-12 -33,-12 -14,0 -24,4 -33,12 -8,8 -12,19 -12,33 0,13 4,24 12,31 8,8 19,12 33,12 14,0 25,-4 33,-12 9,-7 13,-18 13,-31zm-46 -151c-12,0 -21,3 -28,11 -8,7 -11,17 -11,30 0,12 3,21 10,29 8,7 17,11 29,11 12,0 22,-4 29,-11 7,-8 11,-17 11,-29 0,-13 -4,-22 -11,-30 -8,-8 -17,-11 -29,-11z"/>
  <polygon id="30" class="fil1" points="806,1435 780,1435 879,1177 904,1177 "/>
  <path id="31" class="fil1" d="M1083 1313c0,36 -6,62 -19,79 -12,17 -30,26 -56,26 -25,0 -44,-9 -56,-26 -12,-16 -19,-41 -19,-75l0 -40c0,-35 6,-61 18,-78 12,-17 31,-25 57,-25 25,0 44,8 56,24 12,17 18,42 19,76l0 39zm-31 -41c0,-26 -3,-44 -10,-56 -7,-12 -19,-17 -34,-17 -16,0 -27,5 -34,17 -7,12 -11,30 -11,54l0 48c0,26 4,44 11,57 8,12 19,18 34,18 15,0 26,-6 33,-17 7,-12 11,-30 11,-55l0 -49z"/>
  <path id="32" class="fil1" d="M1276 1414l-155 0 0 -21 82 -92c12,-13 21,-25 25,-33 5,-9 7,-18 7,-27 0,-12 -4,-23 -11,-30 -8,-8 -17,-12 -30,-12 -15,0 -27,4 -35,12 -8,9 -12,21 -12,36l-30 0c0,-22 7,-39 21,-53 14,-13 32,-20 56,-20 22,0 39,6 52,17 13,12 19,27 19,46 0,24 -14,52 -44,84l-64 69 119 0 0 24z"/>
  <path id="33" class="fil1" d="M1457 1313c0,36 -6,62 -18,79 -12,17 -31,26 -57,26 -25,0 -44,-9 -56,-26 -12,-16 -18,-41 -19,-75l0 -40c0,-35 6,-61 18,-78 12,-17 31,-25 57,-25 26,0 44,8 56,24 12,17 19,42 19,76l0 39zm-30 -41c0,-26 -4,-44 -11,-56 -7,-12 -18,-17 -34,-17 -15,0 -27,5 -34,17 -7,12 -10,30 -11,54l0 48c0,26 4,44 12,57 7,12 18,18 33,18 15,0 26,-6 33,-17 8,-12 11,-30 12,-55l0 -49z"/>
  <path id="34" class="fil1" d="M1498 1462l-18 -12c11,-14 16,-29 16,-44l0 -27 30 0 0 23c0,11 -3,22 -8,33 -6,11 -12,20 -20,27z"/>
  <path id="35" class="fil1" d="M1826 1383c-8,12 -19,20 -33,26 -15,6 -32,9 -51,9 -19,0 -36,-5 -51,-14 -15,-9 -27,-22 -35,-39 -8,-16 -12,-36 -12,-58l0 -20c0,-36 8,-64 25,-84 16,-19 40,-29 70,-29 25,0 44,6 59,19 16,13 25,31 28,54l-31 0c-6,-32 -25,-47 -56,-47 -21,0 -37,7 -48,22 -10,14 -16,36 -16,64l0 19c0,27 6,48 18,63 12,16 29,24 50,24 11,0 21,-1 30,-4 9,-3 16,-7 22,-13l0 -53 -55 0 0 -26 86 0 0 87z"/>
  <path id="36" class="fil1" d="M1959 1265c-5,-1 -10,-1 -15,-1 -20,0 -33,8 -40,25l0 125 -31 0 0 -176 30 0 0 21c10,-16 24,-24 42,-24 6,0 11,1 14,2l0 28z"/>
  <path id="37" class="fil1" d="M1975 1325c0,-18 3,-33 10,-47 7,-14 16,-24 29,-32 12,-7 25,-11 41,-11 24,0 43,8 58,25 15,16 22,39 22,66l0 2c0,17 -3,33 -9,46 -7,14 -16,25 -29,32 -12,8 -26,12 -42,12 -24,0 -43,-9 -58,-25 -15,-17 -22,-39 -22,-66l0 -2zm30 3c0,20 5,35 14,47 9,12 21,18 36,18 16,0 28,-6 37,-18 9,-12 13,-29 13,-50 0,-20 -4,-35 -13,-47 -10,-12 -22,-18 -37,-18 -15,0 -27,6 -36,17 -9,12 -14,29 -14,51z"/>
  <path id="38" class="fil1" d="M2282 1397c-12,14 -29,21 -52,21 -18,0 -33,-6 -43,-17 -9,-11 -14,-27 -14,-48l0 -115 30 0 0 114c0,27 10,40 32,40 23,0 38,-9 46,-26l0 -128 30 0 0 176 -28 0 -1 -17z"/>
  <path id="39" class="fil1" d="M2386 1238l0 22c14,-17 32,-25 53,-25 37,0 56,21 57,63l0 116 -31 0 0 -116c0,-13 -3,-22 -8,-28 -6,-6 -15,-9 -27,-9 -10,0 -18,2 -26,7 -7,6 -13,12 -17,21l0 125 -30 0 0 -176 29 0z"/>
  <path id="40" class="fil1" d="M2534 1325c0,-27 6,-49 19,-65 13,-17 29,-25 50,-25 21,0 37,7 49,21l0 -92 30 0 0 250 -27 0 -2 -19c-12,15 -29,23 -50,23 -21,0 -37,-9 -50,-25 -13,-17 -19,-39 -19,-66l0 -2zm30 3c0,20 4,36 12,47 8,11 20,17 34,17 19,0 33,-9 42,-26l0 -80c-9,-17 -23,-25 -41,-25 -15,0 -27,5 -35,17 -8,11 -12,28 -12,50z"/>
  <polygon id="41" class="fil1" points="2947,1310 2847,1310 2847,1414 2816,1414 2816,1177 2963,1177 2963,1203 2847,1203 2847,1284 2947,1284 "/>
  <polygon id="42" class="fil1" points="3028,1414 2998,1414 2998,1164 3028,1164 "/>
  <path id="43" class="fil1" d="M3069 1325c0,-18 3,-33 10,-47 6,-14 16,-24 28,-32 12,-7 26,-11 41,-11 24,0 44,8 59,25 14,16 22,39 22,66l0 2c0,17 -3,33 -10,46 -7,14 -16,25 -28,32 -12,8 -26,12 -42,12 -24,0 -43,-9 -58,-25 -15,-17 -22,-39 -22,-66l0 -2zm30 3c0,20 4,35 13,47 9,12 22,18 37,18 15,0 27,-6 36,-18 9,-12 14,-29 14,-50 0,-20 -5,-35 -14,-47 -9,-12 -21,-18 -37,-18 -14,0 -26,6 -35,17 -10,12 -14,29 -14,51z"/>
  <path id="44" class="fil1" d="M3259 1325c0,-18 3,-33 10,-47 7,-14 16,-24 28,-32 12,-7 26,-11 42,-11 24,0 43,8 58,25 15,16 22,39 22,66l0 2c0,17 -3,33 -10,46 -6,14 -16,25 -28,32 -12,8 -26,12 -42,12 -24,0 -43,-9 -58,-25 -15,-17 -22,-39 -22,-66l0 -2zm30 3c0,20 4,35 13,47 10,12 22,18 37,18 15,0 27,-6 36,-18 9,-12 14,-29 14,-50 0,-20 -5,-35 -14,-47 -9,-12 -21,-18 -36,-18 -15,0 -27,6 -36,17 -10,12 -14,29 -14,51z"/>
  <path id="45" class="fil1" d="M3542 1265c-5,-1 -10,-1 -15,-1 -20,0 -33,8 -40,25l0 125 -30 0 0 -176 29 0 0 21c10,-16 24,-24 42,-24 6,0 11,1 14,2l0 28z"/>
  <path id="46" class="fil1" d="M3549 1462l-18 -12c11,-14 16,-29 16,-44l0 -27 30 0 0 23c0,11 -3,22 -8,33 -6,11 -12,20 -20,27z"/>
  <polygon id="47" class="fil1" points="3762,1304 3734,1334 3734,1414 3702,1414 3702,1177 3734,1177 3734,1295 3839,1177 3877,1177 3783,1282 3884,1414 3846,1414 "/>
  <path id="48" class="fil1" d="M3907 1398c0,-5 2,-9 5,-13 3,-3 8,-5 14,-5 6,0 11,2 14,5 3,4 5,8 5,13 0,5 -2,10 -5,13 -3,3 -8,5 -14,5 -6,0 -11,-2 -14,-5 -3,-3 -5,-8 -5,-13z"/>
  <path id="49" class="fil1" d="M4098 1177l32 0 0 168c0,23 -7,41 -21,53 -13,13 -32,20 -54,20 -24,0 -42,-6 -55,-18 -13,-12 -20,-29 -20,-51l31 0c0,13 4,24 11,32 8,7 19,11 33,11 13,0 23,-4 31,-12 8,-8 12,-20 12,-34l0 -169z"/>
  <path id="50" class="fil1" d="M4179 1398c0,-5 1,-9 4,-13 4,-3 8,-5 14,-5 7,0 11,2 14,5 4,4 5,8 5,13 0,5 -1,10 -5,13 -3,3 -7,5 -14,5 -6,0 -10,-2 -14,-5 -3,-3 -4,-8 -4,-13z"/>
  <path id="51" class="fil1" d="M4423 1309c-27,-8 -46,-18 -59,-29 -12,-11 -18,-25 -18,-41 0,-19 8,-34 22,-47 15,-12 35,-18 59,-18 16,0 30,3 43,9 13,7 23,15 30,26 7,12 10,24 10,37l-31 0c0,-15 -5,-26 -14,-34 -9,-8 -22,-12 -38,-12 -16,0 -28,3 -36,10 -9,7 -13,16 -13,28 0,10 4,18 12,25 8,6 22,12 42,18 19,6 35,12 46,18 11,7 19,15 25,24 5,9 8,19 8,31 0,19 -8,35 -23,46 -15,12 -35,18 -60,18 -16,0 -31,-3 -45,-10 -14,-6 -25,-15 -33,-25 -8,-11 -11,-24 -11,-37l31 0c0,14 5,25 16,34 10,8 25,12 42,12 17,0 29,-3 38,-10 9,-7 13,-16 13,-28 0,-11 -4,-20 -12,-27 -8,-6 -23,-12 -44,-18z"/>
  <path id="52" class="fil1" d="M4538 1325c0,-18 4,-33 10,-47 7,-14 17,-24 29,-32 12,-7 26,-11 41,-11 24,0 43,8 58,25 15,16 22,39 22,66l0 2c0,17 -3,33 -9,46 -7,14 -16,25 -29,32 -12,8 -26,12 -42,12 -23,0 -43,-9 -58,-25 -14,-17 -22,-39 -22,-66l0 -2zm30 3c0,20 5,35 14,47 9,12 21,18 36,18 16,0 28,-6 37,-18 9,-12 13,-29 13,-50 0,-20 -4,-35 -13,-47 -10,-12 -22,-18 -37,-18 -15,0 -27,6 -36,17 -9,12 -14,29 -14,51z"/>
  <path id="53" class="fil1" d="M4765 1238l0 20c13,-15 31,-23 53,-23 24,0 41,9 50,28 6,-8 13,-15 23,-20 9,-5 20,-8 33,-8 39,0 58,20 59,61l0 118 -30 0 0 -116c0,-12 -3,-22 -9,-28 -6,-6 -15,-9 -29,-9 -11,0 -20,3 -28,10 -7,6 -11,15 -12,27l0 116 -31 0 0 -115c0,-26 -12,-38 -37,-38 -20,0 -34,8 -41,25l0 128 -30 0 0 -176 29 0z"/>
  <path id="54" class="fil1" d="M5137 1414c-2,-3 -3,-9 -4,-18 -14,14 -31,22 -50,22 -18,0 -32,-5 -43,-15 -11,-10 -17,-22 -17,-37 0,-19 7,-33 21,-43 14,-10 34,-15 59,-15l29 0 0 -14c0,-11 -3,-19 -9,-25 -6,-7 -16,-10 -28,-10 -11,0 -20,3 -27,8 -7,6 -11,12 -11,20l-30 0c0,-9 3,-17 9,-25 7,-9 15,-15 26,-20 10,-5 22,-7 35,-7 20,0 36,5 48,15 11,10 17,24 18,42l0 81c0,16 2,29 6,39l0 2 -32 0zm-50 -22c10,0 19,-2 27,-7 9,-5 15,-12 18,-20l0 -36 -23 0c-37,0 -55,11 -55,33 0,9 3,17 9,22 6,5 14,8 24,8z"/>
  <path id="55" class="fil1" d="M5243 1414l-31 0 0 -176 31 0 0 176zm-33 -223c0,-4 2,-9 4,-12 3,-3 8,-5 14,-5 6,0 10,2 13,5 3,3 5,8 5,12 0,5 -2,9 -5,13 -3,3 -7,5 -13,5 -6,0 -11,-2 -14,-5 -2,-4 -4,-8 -4,-13z"/>
  <path id="56" class="fil1" d="M5348 1370l41 -132 33 0 -71 203c-11,30 -29,44 -53,44l-5 0 -11 -2 0 -25 8 1c10,0 18,-2 24,-6 5,-4 10,-12 14,-23l6 -18 -63 -174 33 0 44 132z"/>
  <path id="57" class="fil1" d="M5555 1414c-2,-3 -3,-9 -5,-18 -14,14 -30,22 -50,22 -17,0 -31,-5 -42,-15 -11,-10 -17,-22 -17,-37 0,-19 7,-33 21,-43 14,-10 33,-15 59,-15l29 0 0 -14c0,-11 -3,-19 -9,-25 -7,-7 -16,-10 -28,-10 -11,0 -20,3 -27,8 -8,6 -11,12 -11,20l-30 0c0,-9 3,-17 9,-25 6,-9 15,-15 25,-20 11,-5 23,-7 36,-7 20,0 36,5 47,15 12,10 18,24 18,42l0 81c0,16 2,29 6,39l0 2 -31 0zm-50 -22c9,0 18,-2 27,-7 8,-5 14,-12 18,-20l0 -36 -24 0c-36,0 -55,11 -55,33 0,9 3,17 9,22 7,5 15,8 25,8z"/>
  <path id="58" class="fil1" d="M5889 1339c-3,25 -12,45 -28,58 -15,14 -36,21 -62,21 -28,0 -50,-10 -67,-30 -17,-21 -26,-47 -26,-81l0 -23c0,-22 4,-41 12,-58 8,-17 19,-30 34,-39 14,-9 31,-13 50,-13 25,0 45,7 60,21 16,14 24,34 27,58l-32 0c-2,-19 -8,-32 -17,-41 -9,-8 -22,-12 -38,-12 -20,0 -36,7 -47,22 -12,15 -17,36 -17,63l0 23c0,26 5,46 16,61 11,15 26,23 45,23 17,0 31,-4 40,-12 9,-8 15,-21 18,-41l32 0z"/>
  <path id="59" class="fil1" d="M5919 1325c0,-18 3,-33 10,-47 7,-14 16,-24 28,-32 12,-7 26,-11 42,-11 24,0 43,8 58,25 15,16 22,39 22,66l0 2c0,17 -3,33 -10,46 -6,14 -16,25 -28,32 -12,8 -26,12 -42,12 -24,0 -43,-9 -58,-25 -15,-17 -22,-39 -22,-66l0 -2zm30 3c0,20 5,35 14,47 9,12 21,18 36,18 15,0 27,-6 36,-18 9,-12 14,-29 14,-50 0,-20 -5,-35 -14,-47 -9,-12 -21,-18 -36,-18 -15,0 -27,6 -36,17 -9,12 -14,29 -14,51z"/>
  <polygon id="60" class="fil1" points="6150,1414 6119,1414 6119,1164 6150,1164 "/>
  <polygon id="61" class="fil1" points="6230,1414 6200,1414 6200,1164 6230,1164 "/>
  <path id="62" class="fil1" d="M6352 1418c-24,0 -44,-8 -59,-24 -14,-16 -22,-37 -22,-63l0 -5c0,-18 3,-33 10,-47 7,-14 16,-25 28,-32 12,-8 25,-12 39,-12 23,0 41,8 53,23 13,15 19,36 19,64l0 13 -119 0c1,17 6,31 15,42 10,11 22,16 37,16 11,0 20,-2 27,-7 8,-4 14,-10 20,-17l18 15c-15,22 -37,34 -66,34zm-4 -158c-12,0 -22,4 -31,13 -8,9 -13,21 -15,37l88 0 0 -2c-1,-15 -5,-27 -12,-36 -7,-8 -17,-12 -30,-12z"/>
  <path id="63" class="fil1" d="M6448 1325c0,-28 6,-49 19,-66 13,-16 30,-24 51,-24 21,0 38,8 50,23l1 -20 28 0 0 172c0,23 -7,41 -20,54 -14,13 -32,20 -55,20 -13,0 -25,-3 -37,-8 -12,-6 -22,-13 -28,-23l16 -18c13,16 28,24 47,24 15,0 26,-4 34,-12 8,-9 13,-20 13,-35l0 -15c-12,14 -29,21 -50,21 -20,0 -37,-9 -50,-25 -13,-17 -19,-40 -19,-68zm30 3c0,20 4,36 13,47 8,11 19,17 34,17 19,0 33,-9 42,-26l0 -80c-10,-17 -23,-25 -42,-25 -15,0 -26,5 -34,17 -9,11 -13,28 -13,50z"/>
  <path id="64" class="fil1" d="M6715 1418c-23,0 -43,-8 -58,-24 -15,-16 -22,-37 -22,-63l0 -5c0,-18 3,-33 10,-47 6,-14 16,-25 28,-32 12,-8 25,-12 39,-12 23,0 40,8 53,23 13,15 19,36 19,64l0 13 -119 0c0,17 5,31 15,42 10,11 22,16 37,16 11,0 20,-2 27,-7 7,-4 14,-10 19,-17l19 15c-15,22 -37,34 -67,34zm-3 -158c-13,0 -23,4 -31,13 -8,9 -13,21 -15,37l88 0 0 -2c-1,-15 -5,-27 -12,-36 -8,-8 -18,-12 -30,-12z"/>
  <path id="65" class="fil1" d="M6893 1325c0,-18 4,-33 11,-47 6,-14 16,-24 28,-32 12,-7 26,-11 41,-11 24,0 44,8 58,25 15,16 23,39 23,66l0 2c0,17 -4,33 -10,46 -7,14 -16,25 -28,32 -13,8 -27,12 -42,12 -24,0 -44,-9 -58,-25 -15,-17 -23,-39 -23,-66l0 -2zm31 3c0,20 4,35 13,47 9,12 21,18 37,18 15,0 27,-6 36,-18 9,-12 14,-29 14,-50 0,-20 -5,-35 -14,-47 -9,-12 -22,-18 -37,-18 -15,0 -27,6 -36,17 -9,12 -13,29 -13,51z"/>
  <path id="66" class="fil1" d="M7106 1414l0 -152 -28 0 0 -24 28 0 0 -18c0,-19 5,-33 15,-44 10,-10 25,-15 43,-15 7,0 14,1 21,3l-2 24c-5,-1 -10,-1 -16,-1 -10,0 -17,2 -23,8 -5,6 -8,14 -8,25l0 18 38 0 0 24 -38 0 0 152 -30 0z"/>
  <polygon id="67" class="fil1" points="7428,1305 7326,1305 7326,1389 7445,1389 7445,1414 7294,1414 7294,1177 7443,1177 7443,1203 7326,1203 7326,1279 7428,1279 "/>
  <path id="68" class="fil1" d="M7508 1238l1 22c13,-17 31,-25 52,-25 38,0 56,21 57,63l0 116 -30 0 0 -116c-1,-13 -3,-22 -9,-28 -6,-6 -15,-9 -27,-9 -9,0 -18,2 -25,7 -8,6 -14,12 -18,21l0 125 -30 0 0 -176 29 0z"/>
  <path id="69" class="fil1" d="M7656 1325c0,-28 6,-49 19,-66 13,-16 29,-24 50,-24 22,0 39,8 51,23l1 -20 28 0 0 172c0,23 -7,41 -21,54 -13,13 -31,20 -54,20 -13,0 -25,-3 -37,-8 -12,-6 -22,-13 -28,-23l16 -18c12,16 28,24 47,24 15,0 26,-4 34,-12 8,-9 12,-20 12,-35l0 -15c-12,14 -28,21 -49,21 -21,0 -37,-9 -50,-25 -13,-17 -19,-40 -19,-68zm30 3c0,20 4,36 12,47 9,11 20,17 35,17 19,0 33,-9 41,-26l0 -80c-9,-17 -23,-25 -41,-25 -15,0 -26,5 -34,17 -9,11 -13,28 -13,50z"/>
  <path id="70" class="fil1" d="M7883 1414l-30 0 0 -176 30 0 0 176zm-33 -223c0,-4 2,-9 5,-12 3,-3 7,-5 13,-5 6,0 10,2 13,5 3,3 5,8 5,12 0,5 -2,9 -5,13 -3,3 -7,5 -13,5 -6,0 -10,-2 -13,-5 -3,-4 -5,-8 -5,-13z"/>
  <path id="71" class="fil1" d="M7960 1238l0 22c14,-17 32,-25 53,-25 37,0 56,21 57,63l0 116 -31 0 0 -116c0,-13 -3,-22 -8,-28 -6,-6 -15,-9 -27,-9 -10,0 -18,2 -26,7 -7,6 -13,12 -17,21l0 125 -30 0 0 -176 29 0z"/>
  <path id="72" class="fil1" d="M8188 1418c-24,0 -43,-8 -58,-24 -15,-16 -23,-37 -23,-63l0 -5c0,-18 4,-33 10,-47 7,-14 16,-25 28,-32 12,-8 25,-12 39,-12 23,0 41,8 54,23 12,15 19,36 19,64l0 13 -120 0c1,17 6,31 16,42 9,11 22,16 37,16 10,0 19,-2 27,-7 7,-4 14,-10 19,-17l18 15c-14,22 -36,34 -66,34zm-4 -158c-12,0 -22,4 -30,13 -9,9 -14,21 -16,37l89 0 0 -2c-1,-15 -5,-27 -13,-36 -7,-8 -17,-12 -30,-12z"/>
  <path id="73" class="fil1" d="M8365 1418c-24,0 -44,-8 -59,-24 -15,-16 -22,-37 -22,-63l0 -5c0,-18 3,-33 10,-47 7,-14 16,-25 28,-32 12,-8 25,-12 39,-12 23,0 41,8 53,23 13,15 19,36 19,64l0 13 -119 0c0,17 6,31 15,42 10,11 22,16 37,16 11,0 20,-2 27,-7 8,-4 14,-10 20,-17l18 15c-15,22 -37,34 -66,34zm-4 -158c-12,0 -22,4 -31,13 -8,9 -13,21 -15,37l88 0 0 -2c-1,-15 -5,-27 -12,-36 -8,-8 -18,-12 -30,-12z"/>
  <path id="74" class="fil1" d="M8553 1265c-4,-1 -9,-1 -15,-1 -19,0 -33,8 -40,25l0 125 -30 0 0 -176 29 0 1 21c10,-16 24,-24 42,-24 6,0 10,1 13,2l0 28z"/>
  <path id="75" class="fil1" d="M8614 1414l-30 0 0 -176 30 0 0 176zm-33 -223c0,-4 2,-9 5,-12 3,-3 7,-5 13,-5 6,0 10,2 13,5 3,3 5,8 5,12 0,5 -2,9 -5,13 -3,3 -7,5 -13,5 -6,0 -10,-2 -13,-5 -3,-4 -5,-8 -5,-13z"/>
  <path id="76" class="fil1" d="M8690 1238l1 22c14,-17 31,-25 53,-25 37,0 56,21 56,63l0 116 -30 0 0 -116c0,-13 -3,-22 -8,-28 -6,-6 -15,-9 -27,-9 -10,0 -18,2 -26,7 -7,6 -13,12 -17,21l0 125 -30 0 0 -176 28 0z"/>
  <path id="77" class="fil1" d="M8839 1325c0,-28 6,-49 19,-66 12,-16 29,-24 50,-24 22,0 38,8 50,23l2 -20 27 0 0 172c0,23 -6,41 -20,54 -13,13 -32,20 -54,20 -13,0 -25,-3 -38,-8 -12,-6 -21,-13 -27,-23l15 -18c13,16 29,24 48,24 14,0 26,-4 34,-12 8,-9 12,-20 12,-35l0 -15c-12,14 -28,21 -49,21 -21,0 -38,-9 -50,-25 -13,-17 -19,-40 -19,-68zm30 3c0,20 4,36 12,47 8,11 20,17 34,17 19,0 33,-9 42,-26l0 -80c-9,-17 -23,-25 -41,-25 -15,0 -27,5 -35,17 -8,11 -12,28 -12,50z"/>
  <path id="78" class="fil1" d="M9032 1462l-17 -12c10,-14 15,-29 16,-44l0 -27 29 0 0 23c0,11 -3,22 -8,33 -5,11 -12,20 -20,27z"/>
  <polygon id="79" class="fil1" points="104,1773 172,1577 206,1577 118,1814 90,1814 2,1577 36,1577 "/>
  <path id="80" class="fil1" d="M266 1814l-31 0 0 -176 31 0 0 176zm-33 -222c0,-5 1,-10 4,-13 3,-3 8,-5 14,-5 6,0 10,2 13,5 3,3 5,8 5,13 0,4 -2,9 -5,12 -3,3 -7,5 -13,5 -6,0 -11,-2 -14,-5 -3,-3 -4,-8 -4,-12z"/>
  <path id="81" class="fil1" d="M306 1725c0,-27 7,-49 20,-65 12,-17 29,-25 50,-25 20,0 37,7 49,21l0 -92 30 0 0 250 -28 0 -1 -18c-12,14 -29,22 -50,22 -21,0 -38,-9 -50,-25 -13,-17 -20,-39 -20,-66l0 -2zm30 3c0,20 5,36 13,47 8,11 19,17 34,17 19,0 33,-9 42,-26l0 -80c-9,-17 -23,-25 -42,-25 -14,0 -26,5 -34,17 -8,11 -13,28 -13,50z"/>
  <path id="82" class="fil1" d="M559 1770l41 -132 32 0 -70 203c-11,30 -29,44 -53,44l-5 0 -11 -2 0 -25 8 1c10,0 18,-2 23,-6 6,-4 11,-12 15,-23l6 -18 -63 -174 33 0 44 132z"/>
  <path id="83" class="fil1" d="M766 1814c-2,-3 -3,-9 -5,-18 -14,14 -30,22 -50,22 -17,0 -31,-5 -42,-15 -12,-10 -17,-22 -17,-37 0,-19 7,-33 21,-43 14,-10 33,-15 59,-15l29 0 0 -14c0,-11 -3,-19 -9,-25 -7,-7 -16,-10 -28,-10 -11,0 -20,3 -27,8 -8,6 -11,12 -11,20l-31 0c0,-9 4,-17 10,-25 6,-9 15,-15 25,-20 11,-5 23,-7 35,-7 21,0 37,5 48,15 12,10 18,24 18,42l0 81c0,16 2,29 6,39l0 2 -31 0zm-50 -22c9,0 18,-2 27,-7 8,-5 14,-12 18,-20l0 -36 -24 0c-37,0 -55,11 -55,33 0,9 3,17 9,22 7,5 15,8 25,8z"/>
  <polygon id="84" class="fil1" points="894,1774 937,1638 968,1638 905,1814 882,1814 818,1638 849,1638 "/>
  <path id="85" class="fil1" d="M1030 1814l-30 0 0 -176 30 0 0 176zm-33 -222c0,-5 2,-10 5,-13 3,-3 7,-5 13,-5 6,0 11,2 14,5 3,3 4,8 4,13 0,4 -1,9 -4,12 -3,3 -8,5 -14,5 -6,0 -10,-2 -13,-5 -3,-3 -5,-8 -5,-12z"/>
  <path id="86" class="fil1" d="M1108 1660c14,-17 31,-25 52,-25 38,0 56,21 57,63l0 116 -30 0 0 -116c-1,-13 -3,-22 -9,-28 -6,-6 -15,-9 -27,-9 -9,0 -18,2 -25,7 -8,6 -14,13 -18,21l0 125 -30 0 0 -250 30 0 0 96z"/>
  <path id="87" class="fil1" d="M1370 1814c-1,-3 -3,-9 -4,-18 -14,14 -30,22 -50,22 -17,0 -31,-5 -43,-15 -11,-10 -16,-22 -16,-37 0,-19 7,-33 21,-43 14,-10 33,-15 58,-15l30 0 0 -14c0,-11 -3,-19 -10,-25 -6,-7 -15,-10 -27,-10 -11,0 -20,3 -28,8 -7,6 -10,12 -10,20l-31 0c0,-9 3,-17 10,-25 6,-9 14,-15 25,-20 11,-5 22,-7 35,-7 21,0 36,5 48,15 11,10 17,24 18,42l0 81c0,16 2,29 6,39l0 2 -32 0zm-49 -22c9,0 18,-2 26,-7 9,-5 15,-12 19,-20l0 -36 -24 0c-37,0 -55,11 -55,33 0,9 3,17 9,22 7,5 15,8 25,8z"/>
  <path id="88" class="fil1" d="M1528 1665c-4,-1 -9,-1 -15,-1 -19,0 -33,8 -40,25l0 125 -30 0 0 -176 29 0 1 21c10,-16 24,-24 42,-24 6,0 10,1 13,2l0 28z"/>
  <path id="89" class="fil1" d="M1535 1862l-17 -12c10,-14 15,-29 16,-44l0 -27 29 0 0 23c0,11 -2,22 -8,33 -5,11 -12,20 -20,27z"/>
  <polygon id="90" class="fil1" points="1729,1577 1806,1771 1884,1577 1924,1577 1924,1814 1893,1814 1893,1722 1896,1622 1818,1814 1794,1814 1717,1623 1720,1722 1720,1814 1689,1814 1689,1577 "/>
  <path id="91" class="fil1" d="M2083 1797c-11,14 -28,21 -51,21 -19,0 -33,-6 -43,-17 -10,-11 -15,-27 -15,-48l0 -115 30 0 0 114c0,27 11,40 33,40 23,0 38,-9 46,-26l0 -128 30 0 0 176 -29 0 -1 -17z"/>
  <path id="92" class="fil1" d="M2187 1638l1 20c13,-15 30,-23 52,-23 25,0 41,9 50,28 6,-8 14,-15 23,-20 9,-5 21,-8 33,-8 39,0 59,20 59,61l0 118 -30 0 0 -116c0,-12 -3,-22 -8,-28 -6,-6 -16,-9 -29,-9 -12,0 -21,3 -28,10 -8,6 -12,15 -13,27l0 116 -30 0 0 -115c0,-26 -13,-38 -38,-38 -20,0 -33,8 -41,25l0 128 -30 0 0 -176 29 0z"/>
  <path id="93" class="fil1" d="M2600 1728c0,27 -6,49 -19,65 -12,17 -29,25 -50,25 -22,0 -39,-8 -51,-24l-2 20 -27 0 0 -250 30 0 0 94c12,-15 29,-23 50,-23 22,0 38,8 51,24 12,16 18,39 18,67l0 2zm-30 -3c0,-21 -4,-36 -12,-48 -8,-11 -19,-16 -34,-16 -20,0 -34,9 -43,27l0 76c9,19 23,28 43,28 14,0 26,-6 34,-17 8,-11 12,-28 12,-50z"/>
  <path id="94" class="fil1" d="M2746 1814c-1,-3 -3,-9 -4,-18 -14,14 -30,22 -50,22 -17,0 -31,-5 -43,-15 -11,-10 -16,-22 -16,-37 0,-19 7,-33 21,-43 14,-10 33,-15 58,-15l30 0 0 -14c0,-11 -3,-19 -10,-25 -6,-7 -15,-10 -27,-10 -11,0 -20,3 -28,8 -7,6 -10,12 -10,20l-31 0c0,-9 3,-17 10,-25 6,-9 14,-15 25,-20 11,-5 22,-7 35,-7 21,0 36,5 48,15 11,10 17,24 18,42l0 81c0,16 2,29 6,39l0 2 -32 0zm-49 -22c9,0 18,-2 26,-7 9,-5 15,-12 19,-20l0 -36 -24 0c-37,0 -55,11 -55,33 0,9 3,17 9,22 7,5 15,8 25,8z"/>
  <path id="95" class="fil1" d="M2852 1814l-30 0 0 -176 30 0 0 176zm-33 -222c0,-5 2,-10 5,-13 3,-3 7,-5 13,-5 6,0 10,2 13,5 3,3 5,8 5,13 0,4 -2,9 -5,12 -3,3 -7,5 -13,5 -6,0 -10,-2 -13,-5 -3,-3 -5,-8 -5,-12z"/>
  <polygon id="96" class="fil1" points="3045,1726 2966,1726 2966,1701 3045,1701 "/>
  <path id="97" class="fil1" d="M3281 1735l33 0 0 24 -33 0 0 55 -30 0 0 -55 -108 0 0 -17 106 -165 32 0 0 158zm-104 0l74 0 0 -116 -4 6 -70 110z"/>
  <path id="98" class="fil1" d="M3490 1713c0,36 -6,62 -18,79 -13,17 -31,26 -57,26 -25,0 -44,-9 -56,-25 -12,-17 -19,-42 -19,-76l0 -40c0,-35 6,-61 18,-78 12,-17 31,-25 57,-25 25,0 44,8 56,25 12,16 18,41 19,75l0 39zm-31 -41c0,-26 -3,-44 -10,-56 -7,-11 -19,-17 -34,-17 -16,0 -27,6 -34,17 -7,12 -11,30 -11,54l0 48c0,26 4,44 11,57 8,12 19,18 34,18 15,0 26,-6 33,-17 7,-12 11,-30 11,-55l0 -49z"/>
  <path id="99" class="fil1" d="M3677 1713c0,36 -6,62 -18,79 -12,17 -31,26 -57,26 -25,0 -44,-9 -56,-25 -12,-17 -18,-42 -19,-76l0 -40c0,-35 6,-61 18,-78 12,-17 31,-25 57,-25 25,0 44,8 56,25 12,16 18,41 19,75l0 39zm-30 -41c0,-26 -4,-44 -11,-56 -7,-11 -19,-17 -34,-17 -16,0 -27,6 -34,17 -7,12 -10,30 -11,54l0 48c0,26 4,44 11,57 8,12 19,18 34,18 15,0 26,-6 33,-17 8,-12 11,-30 12,-55l0 -49z"/>
  <path id="100" class="fil1" d="M3946 1713c0,36 -6,62 -18,79 -12,17 -30,26 -56,26 -25,0 -44,-9 -56,-25 -12,-17 -19,-42 -19,-76l0 -40c0,-35 6,-61 18,-78 12,-17 31,-25 57,-25 25,0 44,8 56,25 12,16 18,41 18,75l0 39zm-30 -41c0,-26 -3,-44 -10,-56 -8,-11 -19,-17 -34,-17 -16,0 -27,6 -34,17 -7,12 -11,30 -11,54l0 48c0,26 4,44 11,57 8,12 19,18 34,18 15,0 26,-6 33,-17 7,-12 11,-30 11,-55l0 -49z"/>
  <polygon id="101" class="fil1" points="4138,1594 4040,1814 4008,1814 4106,1602 3978,1602 3978,1577 4138,1577 "/>
  <polygon id="102" class="fil1" points="4325,1594 4227,1814 4195,1814 4293,1602 4165,1602 4165,1577 4325,1577 "/>
  <path id="103" class="fil1" d="M4363 1799c0,-6 2,-10 5,-13 3,-4 8,-6 14,-6 6,0 11,2 14,6 3,3 5,7 5,13 0,4 -2,9 -5,12 -3,3 -8,5 -14,5 -6,0 -11,-2 -14,-5 -3,-3 -5,-8 -5,-12z"/>
  <path id="104" class="fil1" d="M123 2568c0,-8 -3,-15 -9,-19 -6,-5 -17,-9 -32,-12 -15,-3 -27,-7 -36,-12 -9,-4 -16,-9 -20,-16 -4,-6 -7,-14 -7,-22 0,-15 7,-27 19,-37 12,-10 28,-15 47,-15 20,0 36,5 48,16 13,10 19,23 19,39l-30 0c0,-8 -4,-15 -11,-21 -7,-6 -16,-9 -26,-9 -11,0 -20,2 -26,7 -6,5 -9,11 -9,19 0,7 2,12 8,16 6,4 16,7 31,11 15,3 28,7 37,12 9,4 16,10 21,17 4,6 6,14 6,24 0,15 -6,28 -18,38 -13,9 -29,14 -49,14 -15,0 -27,-3 -38,-8 -11,-5 -19,-12 -25,-21 -6,-9 -10,-18 -10,-29l31 0c0,10 4,18 12,24 7,6 17,9 30,9 11,0 20,-2 27,-7 7,-4 10,-11 10,-18z"/>
  <path id="105" class="fil1" d="M234 2396l0 42 32 0 0 24 -32 0 0 109c0,7 1,12 4,16 3,3 8,5 15,5 3,0 8,-1 14,-2l0 25c-8,2 -15,3 -23,3 -13,0 -24,-4 -30,-12 -7,-9 -11,-20 -11,-35l0 -109 -32 0 0 -24 32 0 0 -42 31 0z"/>
  <path id="106" class="fil1" d="M410 2597c-12,14 -29,21 -51,21 -19,0 -33,-6 -43,-17 -10,-10 -15,-27 -15,-48l0 -115 30 0 0 114c0,27 11,40 32,40 23,0 39,-8 46,-26l0 -128 30 0 0 176 -28 0 -1 -17z"/>
  <path id="107" class="fil1" d="M478 2525c0,-27 6,-49 19,-65 13,-17 30,-25 50,-25 21,0 37,7 49,21l0 -92 31 0 0 250 -28 0 -2 -18c-12,14 -28,22 -50,22 -20,0 -37,-9 -50,-25 -13,-17 -19,-39 -19,-66l0 -2zm30 3c0,20 4,36 12,47 9,12 20,17 35,17 19,0 33,-8 41,-26l0 -80c-9,-17 -22,-25 -41,-25 -15,0 -26,5 -35,17 -8,11 -12,28 -12,50z"/>
  <path id="108" class="fil1" d="M746 2618c-23,0 -43,-8 -58,-24 -15,-15 -22,-36 -22,-63l0 -5c0,-18 3,-33 10,-47 6,-14 16,-24 28,-32 12,-8 25,-12 39,-12 23,0 40,8 53,23 13,15 19,36 19,65l0 12 -119 0c0,17 5,31 15,42 10,11 22,16 37,16 11,0 20,-2 27,-6 7,-5 14,-10 19,-18l19 15c-15,22 -37,34 -67,34zm-3 -158c-13,0 -23,4 -31,13 -8,9 -13,21 -15,37l88 0 0 -2c-1,-15 -5,-27 -12,-36 -8,-8 -18,-12 -30,-12z"/>
  <path id="109" class="fil1" d="M878 2438l1 23c14,-17 31,-26 53,-26 37,0 56,21 56,63l0 116 -30 0 0 -116c0,-13 -3,-22 -8,-28 -6,-6 -15,-9 -27,-9 -10,0 -18,2 -26,8 -7,5 -13,12 -17,20l0 125 -30 0 0 -176 28 0z"/>
  <path id="110" class="fil1" d="M1075 2396l0 42 33 0 0 24 -33 0 0 109c0,7 1,12 4,16 3,3 8,5 15,5 4,0 8,-1 14,-2l0 25c-8,2 -15,3 -23,3 -13,0 -23,-4 -30,-12 -7,-9 -10,-20 -10,-35l0 -109 -32 0 0 -24 32 0 0 -42 30 0z"/>
  <path id="111" class="fil1" d="M1245 2568c0,-8 -3,-15 -9,-19 -6,-5 -17,-9 -32,-12 -15,-3 -27,-7 -36,-12 -9,-4 -16,-9 -20,-16 -4,-6 -7,-14 -7,-22 0,-15 7,-27 19,-37 12,-10 28,-15 47,-15 20,0 36,5 48,16 13,10 19,23 19,39l-30 0c0,-8 -4,-15 -11,-21 -7,-6 -16,-9 -26,-9 -11,0 -20,2 -26,7 -6,5 -9,11 -9,19 0,7 2,12 8,16 6,4 16,7 31,11 15,3 28,7 37,12 9,4 16,10 21,17 4,6 6,14 6,24 0,15 -6,28 -18,38 -13,9 -29,14 -49,14 -15,0 -27,-3 -38,-8 -11,-5 -19,-12 -25,-21 -6,-9 -10,-18 -10,-29l31 0c0,10 4,18 12,24 7,6 17,9 30,9 11,0 20,-2 27,-7 7,-4 10,-11 10,-18z"/>
  <path id="112" class="fil1" d="M1385 2593c11,0 20,-3 28,-10 8,-6 13,-14 14,-24l28 0c0,10 -4,20 -10,29 -7,9 -15,16 -26,22 -11,5 -22,8 -34,8 -24,0 -43,-8 -57,-24 -14,-16 -21,-38 -21,-66l0 -5c0,-17 3,-32 9,-46 6,-13 15,-23 27,-31 12,-7 26,-11 42,-11 20,0 36,6 49,18 13,12 20,27 21,46l-28 0c-1,-11 -6,-21 -13,-28 -8,-8 -18,-11 -29,-11 -15,0 -27,5 -36,16 -8,11 -12,27 -12,48l0 6c0,20 4,36 12,47 9,11 21,16 36,16z"/>
  <path id="113" class="fil1" d="M1481 2525c0,-17 3,-33 10,-47 7,-14 16,-24 29,-32 12,-7 25,-11 41,-11 24,0 43,8 58,25 15,17 22,39 22,66l0 2c0,18 -3,33 -9,47 -7,13 -16,24 -29,31 -12,8 -26,12 -42,12 -24,0 -43,-8 -58,-25 -15,-17 -22,-39 -22,-66l0 -2zm30 3c0,20 5,36 14,47 9,12 21,18 36,18 16,0 28,-6 37,-18 9,-12 13,-29 13,-50 0,-20 -4,-35 -13,-47 -10,-12 -22,-18 -37,-18 -15,0 -27,6 -36,18 -9,11 -14,28 -14,50z"/>
  <path id="114" class="fil1" d="M1788 2597c-12,14 -29,21 -52,21 -18,0 -33,-6 -43,-17 -9,-10 -14,-27 -14,-48l0 -115 30 0 0 114c0,27 10,40 32,40 23,0 38,-8 46,-26l0 -128 30 0 0 176 -28 0 -1 -17z"/>
  <path id="115" class="fil1" d="M1892 2438l0 23c14,-17 32,-26 53,-26 37,0 56,21 57,63l0 116 -31 0 0 -116c0,-13 -3,-22 -8,-28 -6,-6 -15,-9 -27,-9 -10,0 -18,2 -26,8 -7,5 -13,12 -17,20l0 125 -30 0 0 -176 29 0z"/>
  <path id="116" class="fil1" d="M2117 2593c11,0 21,-3 29,-10 8,-6 12,-14 13,-24l28 0c0,10 -4,20 -10,29 -6,9 -15,16 -26,22 -10,5 -22,8 -34,8 -23,0 -43,-8 -57,-24 -14,-16 -21,-38 -21,-66l0 -5c0,-17 3,-32 9,-46 7,-13 16,-23 28,-31 11,-7 25,-11 41,-11 20,0 36,6 50,18 13,12 20,27 20,46l-28 0c-1,-11 -5,-21 -13,-28 -8,-8 -17,-11 -29,-11 -15,0 -27,5 -35,16 -9,11 -13,27 -13,48l0 6c0,20 4,36 13,47 8,11 20,16 35,16z"/>
  <path id="117" class="fil1" d="M2254 2614l-30 0 0 -176 30 0 0 176zm-32 -222c0,-5 1,-9 4,-13 3,-3 8,-5 13,-5 6,0 11,2 14,5 3,4 4,8 4,13 0,5 -1,9 -4,12 -3,3 -8,5 -14,5 -5,0 -10,-2 -13,-5 -3,-3 -4,-7 -4,-12z"/>
  <polygon id="118" class="fil1" points="2335,2614 2305,2614 2305,2364 2335,2364 "/>
  <path id="119" class="fil1" d="M2384 2599c0,-6 1,-10 4,-13 4,-4 8,-6 14,-6 7,0 11,2 14,6 4,3 5,7 5,13 0,5 -1,9 -5,12 -3,3 -7,5 -14,5 -6,0 -10,-2 -14,-5 -3,-3 -4,-7 -4,-12z"/>
  <path id="120" class="fil1" d="M2544 2618c-24,0 -43,-8 -58,-24 -15,-15 -23,-36 -23,-63l0 -5c0,-18 4,-33 10,-47 7,-14 16,-24 28,-32 12,-8 25,-12 39,-12 23,0 41,8 54,23 12,15 19,36 19,65l0 12 -120 0c1,17 6,31 16,42 9,11 22,16 37,16 10,0 19,-2 27,-6 7,-5 14,-10 19,-18l18 15c-14,22 -36,34 -66,34zm-4 -158c-12,0 -22,4 -30,13 -9,9 -14,21 -16,37l89 0 0 -2c-1,-15 -5,-27 -13,-36 -7,-8 -17,-12 -30,-12z"/>
  <path id="121" class="fil1" d="M2676 2438l1 23c13,-17 31,-26 53,-26 37,0 56,21 56,63l0 116 -30 0 0 -116c0,-13 -3,-22 -9,-28 -5,-6 -14,-9 -26,-9 -10,0 -19,2 -26,8 -7,5 -13,12 -17,20l0 125 -30 0 0 -176 28 0z"/>
  <path id="122" class="fil1" d="M2824 2525c0,-27 7,-49 19,-66 13,-16 30,-24 51,-24 21,0 38,8 50,23l2 -20 27 0 0 172c0,23 -7,41 -20,54 -14,13 -32,20 -55,20 -12,0 -25,-3 -37,-8 -12,-6 -21,-13 -28,-23l16 -18c13,16 29,24 47,24 15,0 26,-4 35,-12 8,-8 12,-20 12,-35l0 -15c-12,14 -29,21 -50,21 -20,0 -37,-8 -50,-25 -12,-17 -19,-39 -19,-68zm31 3c0,20 4,36 12,47 8,11 19,17 34,17 19,0 33,-8 42,-26l0 -80c-9,-17 -23,-25 -42,-25 -14,0 -26,5 -34,17 -8,11 -12,28 -12,50z"/>
  <path id="123" class="fil1" d="M3011 2525c0,-27 7,-49 19,-66 13,-16 30,-24 51,-24 21,0 38,8 50,23l2 -20 27 0 0 172c0,23 -7,41 -20,54 -14,13 -32,20 -55,20 -12,0 -25,-3 -37,-8 -12,-6 -21,-13 -28,-23l16 -18c13,16 29,24 47,24 15,0 26,-4 35,-12 8,-8 12,-20 12,-35l0 -15c-12,14 -29,21 -50,21 -20,0 -37,-8 -50,-25 -12,-17 -19,-39 -19,-68zm31 3c0,20 4,36 12,47 8,11 19,17 34,17 19,0 33,-8 42,-26l0 -80c-9,-17 -23,-25 -42,-25 -14,0 -26,5 -34,17 -8,11 -12,28 -12,50z"/>
  <path id="124" class="fil1" d="M3466 2533c-2,26 -8,47 -20,62 -12,15 -27,23 -47,23 -20,0 -33,-9 -39,-28 -6,10 -13,17 -20,21 -8,5 -15,7 -24,7 -15,0 -27,-6 -35,-19 -7,-13 -10,-30 -8,-52 1,-18 5,-34 12,-48 7,-14 15,-25 25,-33 11,-9 22,-13 33,-13 9,0 17,2 24,4 7,2 14,7 23,14l-8 90c-2,25 4,38 20,38 13,0 23,-7 30,-19 8,-12 12,-28 13,-47 2,-43 -6,-75 -24,-97 -18,-22 -45,-34 -81,-34 -22,0 -41,6 -58,17 -17,10 -30,26 -40,46 -10,21 -15,44 -16,71 -2,27 1,50 9,70 8,20 20,35 36,45 16,11 35,16 58,16 10,0 20,-1 29,-3 10,-3 18,-6 25,-10l6 19c-7,5 -16,8 -27,11 -11,3 -22,4 -34,4 -27,0 -50,-6 -70,-18 -19,-12 -34,-30 -43,-53 -10,-23 -14,-50 -13,-80 1,-30 8,-57 20,-81 12,-24 28,-42 49,-55 21,-13 44,-20 70,-20 27,0 50,7 69,19 20,12 34,29 43,52 10,23 14,50 13,81zm-167 14c-2,15 0,27 4,35 4,8 11,12 21,12 6,0 13,-2 19,-8 6,-5 11,-13 15,-24l0 -1 7 -82c-6,-3 -12,-5 -19,-5 -13,0 -24,7 -32,20 -8,13 -13,30 -15,53z"/>
  <path id="125" class="fil1" d="M3607 2568c0,-8 -3,-15 -9,-19 -6,-5 -17,-9 -32,-12 -15,-3 -27,-7 -36,-12 -9,-4 -16,-9 -20,-16 -4,-6 -6,-14 -6,-22 0,-15 6,-27 18,-37 12,-10 28,-15 47,-15 20,0 36,5 48,16 13,10 19,23 19,39l-30 0c0,-8 -4,-15 -11,-21 -7,-6 -16,-9 -26,-9 -11,0 -20,2 -26,7 -6,5 -9,11 -9,19 0,7 3,12 8,16 6,4 16,7 31,11 16,3 28,7 37,12 9,4 16,10 21,17 4,6 7,14 7,24 0,15 -7,28 -19,38 -13,9 -29,14 -49,14 -14,0 -27,-3 -38,-8 -11,-5 -19,-12 -25,-21 -6,-9 -9,-18 -9,-29l30 0c0,10 4,18 12,24 7,6 17,9 30,9 11,0 20,-2 27,-7 7,-4 10,-11 10,-18z"/>
  <path id="126" class="fil1" d="M3669 2525c0,-17 3,-33 10,-47 7,-14 16,-24 28,-32 12,-7 26,-11 42,-11 24,0 43,8 58,25 15,17 22,39 22,66l0 2c0,18 -3,33 -10,47 -6,13 -16,24 -28,31 -12,8 -26,12 -42,12 -24,0 -43,-8 -58,-25 -15,-17 -22,-39 -22,-66l0 -2zm30 3c0,20 4,36 14,47 9,12 21,18 36,18 15,0 27,-6 36,-18 9,-12 14,-29 14,-50 0,-20 -5,-35 -14,-47 -9,-12 -21,-18 -36,-18 -15,0 -27,6 -36,18 -9,11 -14,28 -14,50z"/>
  <path id="127" class="fil1" d="M3895 2438l1 20c13,-15 30,-23 52,-23 25,0 42,10 50,28 6,-8 14,-15 23,-20 10,-5 21,-8 34,-8 38,0 58,21 58,61l0 118 -30 0 0 -116c0,-12 -3,-22 -8,-28 -6,-6 -16,-9 -29,-9 -11,0 -21,3 -28,10 -7,6 -12,15 -13,27l0 116 -30 0 0 -115c0,-25 -13,-38 -38,-38 -20,0 -33,8 -40,25l0 128 -30 0 0 -176 28 0z"/>
  <path id="128" class="fil1" d="M4268 2614c-2,-3 -3,-9 -5,-18 -14,15 -30,22 -50,22 -17,0 -31,-5 -42,-15 -11,-10 -17,-22 -17,-37 0,-19 7,-33 21,-43 14,-10 33,-15 59,-15l29 0 0 -14c0,-11 -3,-19 -9,-25 -7,-6 -16,-10 -28,-10 -11,0 -20,3 -27,9 -8,5 -11,12 -11,19l-30 0c0,-9 3,-17 9,-25 6,-8 15,-15 25,-20 11,-4 23,-7 36,-7 20,0 36,5 47,15 12,10 18,24 18,42l0 81c0,16 2,29 6,39l0 2 -31 0zm-50 -22c9,0 18,-2 27,-7 8,-5 14,-12 18,-19l0 -37 -24 0c-36,0 -55,11 -55,33 0,9 3,17 9,22 7,5 15,8 25,8z"/>
  <path id="129" class="fil1" d="M4373 2614l-30 0 0 -176 30 0 0 176zm-32 -222c0,-5 1,-9 4,-13 3,-3 7,-5 13,-5 6,0 11,2 14,5 3,4 4,8 4,13 0,5 -1,9 -4,12 -3,3 -8,5 -14,5 -6,0 -10,-2 -13,-5 -3,-3 -4,-7 -4,-12z"/>
  <path id="130" class="fil1" d="M4479 2570l41 -132 32 0 -71 204c-11,29 -28,43 -52,43l-6 0 -11 -2 0 -25 8 1c10,0 18,-2 24,-6 6,-4 10,-12 14,-23l7 -17 -63 -175 33 0 44 132z"/>
  <path id="131" class="fil1" d="M4685 2614c-2,-3 -3,-9 -4,-18 -14,15 -31,22 -50,22 -18,0 -32,-5 -43,-15 -11,-10 -17,-22 -17,-37 0,-19 7,-33 21,-43 14,-10 34,-15 59,-15l29 0 0 -14c0,-11 -3,-19 -9,-25 -6,-6 -16,-10 -28,-10 -11,0 -20,3 -27,9 -7,5 -11,12 -11,19l-30 0c0,-9 3,-17 9,-25 7,-8 15,-15 26,-20 10,-4 22,-7 35,-7 20,0 36,5 48,15 11,10 17,24 18,42l0 81c0,16 2,29 6,39l0 2 -32 0zm-50 -22c10,0 19,-2 27,-7 9,-5 15,-12 18,-19l0 -37 -23 0c-37,0 -55,11 -55,33 0,9 3,17 9,22 6,5 14,8 24,8z"/>
  <path id="132" class="fil1" d="M4758 2599c0,-6 2,-10 5,-13 3,-4 8,-6 14,-6 6,0 11,2 14,6 3,3 5,7 5,13 0,5 -2,9 -5,12 -3,3 -8,5 -14,5 -6,0 -11,-2 -14,-5 -3,-3 -5,-7 -5,-12z"/>
  <path id="133" class="fil1" d="M4919 2618c-24,0 -44,-8 -59,-24 -15,-15 -22,-36 -22,-63l0 -5c0,-18 3,-33 10,-47 7,-14 16,-24 28,-32 12,-8 25,-12 39,-12 23,0 41,8 53,23 13,15 19,36 19,65l0 12 -119 0c0,17 6,31 15,42 10,11 22,16 37,16 11,0 20,-2 27,-6 8,-5 14,-10 20,-18l18 15c-15,22 -37,34 -66,34zm-4 -158c-12,0 -22,4 -31,13 -8,9 -13,21 -15,37l88 0 0 -2c-1,-15 -5,-27 -12,-36 -7,-8 -17,-12 -30,-12z"/>
  <path id="134" class="fil1" d="M5015 2525c0,-27 6,-49 19,-65 13,-17 30,-25 50,-25 21,0 37,7 49,21l0 -92 30 0 0 250 -27 0 -2 -18c-12,14 -29,22 -50,22 -20,0 -37,-9 -50,-25 -13,-17 -19,-39 -19,-66l0 -2zm30 3c0,20 4,36 12,47 9,12 20,17 34,17 20,0 34,-8 42,-26l0 -80c-9,-17 -23,-25 -41,-25 -15,0 -26,5 -35,17 -8,11 -12,28 -12,50z"/>
  <path id="135" class="fil1" d="M5319 2597c-12,14 -29,21 -52,21 -19,0 -33,-6 -43,-17 -9,-10 -14,-27 -15,-48l0 -115 31 0 0 114c0,27 10,40 32,40 23,0 38,-8 46,-26l0 -128 30 0 0 176 -29 0 0 -17z"/>
  <path id="136" class="fil1" d="M68 3331l0 84 -49 0 0 -237 93 0c17,0 33,3 46,9 14,7 24,16 32,28 7,12 11,26 11,41 0,23 -8,42 -24,55 -16,14 -38,20 -66,20l-43 0zm0 -39l44 0c12,0 22,-3 29,-10 7,-6 10,-14 10,-26 0,-11 -3,-21 -10,-28 -7,-7 -16,-11 -28,-11l-45 0 0 75z"/>
  <path id="137" class="fil1" d="M337 3397c-12,14 -28,21 -49,21 -19,0 -33,-6 -43,-16 -10,-11 -15,-27 -15,-48l0 -115 47 0 0 113c0,19 8,28 25,28 16,0 27,-6 33,-17l0 -124 47 0 0 176 -44 0 -1 -18z"/>
  <path id="138" class="fil1" d="M576 3328c0,28 -6,50 -18,66 -12,16 -29,24 -50,24 -19,0 -35,-7 -46,-22l-2 19 -43 0 0 -250 48 0 0 89c10,-12 25,-19 42,-19 22,0 39,8 51,24 12,16 18,38 18,67l0 2zm-47 -3c0,-18 -3,-31 -8,-39 -6,-9 -14,-13 -26,-13 -15,0 -25,6 -30,19l0 69c5,13 16,19 31,19 15,0 25,-8 30,-23 2,-7 3,-18 3,-32z"/>
  <polygon id="139" class="fil1" points="655,3415 608,3415 608,3165 655,3165 "/>
  <path id="140" class="fil1" d="M743 3415l-47 0 0 -176 47 0 0 176zm-50 -222c0,-7 3,-13 7,-17 5,-5 11,-7 20,-7 8,0 14,2 19,7 5,4 7,10 7,17 0,7 -2,13 -7,18 -5,4 -12,7 -19,7 -8,0 -15,-3 -20,-7 -4,-5 -7,-11 -7,-18z"/>
  <path id="141" class="fil1" d="M855 3380c9,0 16,-2 21,-7 6,-5 8,-11 9,-19l44 0c0,12 -4,23 -10,33 -6,10 -15,17 -26,23 -11,5 -24,8 -37,8 -25,0 -45,-8 -60,-24 -14,-16 -21,-38 -21,-66l0 -4c0,-27 7,-48 21,-64 15,-17 34,-25 60,-25 22,0 39,7 53,19 13,13 20,29 20,50l-44 0c-1,-9 -3,-16 -9,-22 -5,-6 -12,-9 -21,-9 -11,0 -19,4 -25,12 -6,8 -8,21 -8,39l0 5c0,18 2,31 8,39 5,8 14,12 25,12z"/>
  <path id="142" class="fil1" d="M1130 3328l-39 0 0 87 -49 0 0 -237 88 0c28,0 49,6 65,18 15,13 22,30 22,53 0,16 -3,30 -10,41 -7,11 -18,19 -32,26l51 96 0 3 -52 0 -44 -87zm-39 -40l39 0c12,0 22,-3 29,-9 6,-6 10,-15 10,-26 0,-11 -4,-20 -10,-26 -6,-7 -16,-10 -29,-10l-39 0 0 71z"/>
  <path id="143" class="fil1" d="M1333 3418c-26,0 -47,-8 -63,-24 -17,-16 -25,-37 -25,-63l0 -5c0,-17 4,-33 10,-47 7,-14 17,-25 30,-32 12,-8 26,-12 42,-12 25,0 43,8 57,23 14,15 21,37 21,65l0 19 -112 0c1,11 6,21 14,28 7,6 17,10 29,10 18,0 32,-7 42,-20l23 26c-7,10 -16,18 -28,24 -12,5 -26,8 -40,8zm-6 -145c-9,0 -17,3 -22,10 -6,6 -10,15 -12,27l66 0 0 -4c0,-10 -3,-18 -9,-24 -5,-6 -13,-9 -23,-9z"/>
  <polygon id="144" class="fil1" points="1481,3415 1434,3415 1434,3165 1481,3165 "/>
  <path id="145" class="fil1" d="M1622 3415c-2,-5 -4,-10 -5,-16 -11,13 -26,19 -44,19 -17,0 -32,-5 -43,-15 -11,-10 -17,-23 -17,-38 0,-19 7,-33 21,-43 14,-10 34,-15 60,-15l21 0 0 -10c0,-8 -2,-15 -6,-19 -4,-5 -11,-8 -20,-8 -8,0 -14,2 -18,6 -5,4 -7,9 -7,15l-47 0c0,-10 3,-19 9,-28 7,-9 16,-15 27,-20 12,-5 24,-8 39,-8 22,0 39,6 51,17 13,11 20,26 20,46l0 76c0,17 2,29 7,38l0 3 -48 0zm-39 -33c7,0 14,-2 19,-5 6,-3 11,-7 13,-12l0 -30 -17 0c-24,0 -36,8 -38,24l0 3c0,6 2,10 6,14 4,4 10,6 17,6z"/>
  <path id="146" class="fil1" d="M1755 3195l0 44 30 0 0 34 -30 0 0 88c0,7 1,11 4,14 2,3 7,4 14,4 5,0 10,0 14,-1l0 36c-9,3 -19,4 -28,4 -33,0 -50,-17 -51,-50l0 -95 -26 0 0 -34 26 0 0 -44 47 0z"/>
  <path id="147" class="fil1" d="M1861 3415l-47 0 0 -176 47 0 0 176zm-50 -222c0,-7 2,-13 7,-17 5,-5 11,-7 19,-7 8,0 15,2 20,7 4,4 7,10 7,17 0,7 -3,13 -7,18 -5,4 -12,7 -20,7 -8,0 -14,-3 -19,-7 -5,-5 -7,-11 -7,-18z"/>
  <path id="148" class="fil1" d="M1892 3325c0,-18 4,-33 10,-47 7,-13 17,-24 30,-32 12,-7 27,-11 44,-11 23,0 43,8 58,22 15,15 23,34 25,59l0 12c0,27 -7,49 -22,65 -16,17 -36,25 -61,25 -26,0 -46,-8 -61,-25 -15,-16 -23,-38 -23,-66l0 -2zm47 3c0,17 4,30 10,39 6,8 15,13 27,13 11,0 20,-4 27,-13 6,-9 9,-23 9,-42 0,-17 -3,-29 -9,-38 -7,-9 -16,-14 -27,-14 -12,0 -21,5 -27,14 -6,9 -10,23 -10,41z"/>
  <path id="149" class="fil1" d="M2132 3239l1 20c13,-16 29,-24 51,-24 18,0 32,6 41,17 9,11 14,27 14,49l0 114 -47 0 0 -113c0,-10 -2,-17 -6,-22 -5,-4 -12,-7 -22,-7 -13,0 -23,6 -30,17l0 125 -47 0 0 -176 45 0z"/>
  <path id="150" class="fil1" d="M2370 3366c0,-6 -3,-10 -8,-14 -6,-3 -15,-6 -28,-8 -42,-9 -63,-27 -63,-54 0,-16 7,-29 20,-39 13,-11 30,-16 51,-16 22,0 40,6 53,16 14,11 21,24 21,41l-48 0c0,-7 -2,-12 -6,-17 -4,-4 -11,-6 -20,-6 -8,0 -14,2 -19,5 -4,4 -6,8 -6,14 0,5 2,9 7,12 5,4 13,6 25,9 12,2 22,5 30,8 25,9 37,25 37,47 0,16 -7,29 -21,39 -13,10 -31,15 -53,15 -15,0 -28,-3 -39,-8 -12,-5 -21,-12 -27,-22 -7,-9 -10,-19 -10,-29l45 0c0,8 3,14 9,19 6,4 13,7 23,7 9,0 16,-2 20,-6 5,-3 7,-7 7,-13z"/>
  <path id="151" class="fil1" d="M25 3815l0 -237 67 0c21,0 39,4 55,13 16,9 28,22 37,39 8,17 13,36 13,58l0 15c0,23 -5,42 -13,59 -9,17 -21,30 -37,39 -16,9 -35,13 -56,14l-66 0zm32 -212l0 186 33 0c24,0 42,-8 56,-22 13,-15 20,-37 20,-64l0 -14c0,-27 -6,-48 -19,-63 -13,-15 -31,-22 -54,-23l-36 0z"/>
  <path id="152" class="fil1" d="M269 3660c14,-17 31,-25 53,-25 37,0 56,21 56,63l0 117 -30 0 0 -117c0,-12 -3,-22 -9,-28 -6,-6 -15,-9 -27,-9 -9,0 -18,3 -25,8 -8,5 -13,12 -18,20l0 126 -30 0 0 -250 30 0 0 95z"/>
  <path id="153" class="fil1" d="M532 3815c-2,-4 -3,-10 -5,-19 -14,15 -30,22 -50,22 -17,0 -31,-5 -42,-15 -12,-10 -17,-22 -17,-37 0,-18 7,-33 21,-43 14,-10 33,-15 59,-15l29 0 0 -14c0,-10 -3,-19 -9,-25 -7,-6 -16,-9 -28,-9 -11,0 -20,2 -27,8 -8,5 -11,12 -11,19l-31 0c0,-8 4,-17 10,-25 6,-8 15,-15 25,-20 11,-4 23,-7 35,-7 21,0 37,5 48,16 12,10 18,24 18,41l0 81c0,17 2,29 6,39l0 3 -31 0zm-50 -23c9,0 18,-2 27,-7 8,-5 14,-11 18,-19l0 -37 -24 0c-37,0 -55,11 -55,33 0,9 3,17 9,22 7,6 15,8 25,8z"/>
  <path id="154" class="fil1" d="M689 3665c-4,0 -9,-1 -14,-1 -20,0 -34,9 -41,26l0 125 -30 0 0 -176 29 0 1 20c10,-16 24,-24 42,-24 6,0 10,1 13,3l0 27z"/>
  <path id="155" class="fil1" d="M745 3639l1 19c13,-15 30,-23 52,-23 25,0 42,10 51,29 5,-9 13,-16 23,-21 9,-5 20,-8 33,-8 38,0 58,21 59,62l0 118 -30 0 0 -116c0,-13 -3,-22 -9,-29 -6,-6 -15,-9 -29,-9 -11,0 -20,3 -28,10 -7,7 -12,16 -13,27l0 117 -30 0 0 -116c0,-25 -13,-38 -38,-38 -19,0 -33,8 -40,25l0 129 -30 0 0 -176 28 0z"/>
  <path id="156" class="fil1" d="M1042 3815l-30 0 0 -176 30 0 0 176zm-33 -223c0,-5 2,-9 5,-13 3,-3 7,-5 13,-5 6,0 10,2 13,5 4,4 5,8 5,13 0,5 -1,9 -5,12 -3,3 -7,5 -13,5 -6,0 -10,-2 -13,-5 -3,-3 -5,-7 -5,-12z"/>
  <path id="157" class="fil1" d="M1193 3768c0,-8 -3,-15 -10,-19 -6,-4 -16,-8 -32,-12 -15,-3 -27,-7 -36,-11 -9,-5 -15,-10 -20,-17 -4,-6 -6,-13 -6,-22 0,-15 6,-27 18,-37 12,-10 28,-15 47,-15 20,0 36,5 49,16 12,10 18,23 18,39l-30 0c0,-8 -4,-15 -11,-21 -7,-6 -15,-9 -26,-9 -11,0 -20,2 -26,7 -6,5 -9,11 -9,19 0,7 3,13 9,16 5,4 16,8 31,11 15,3 27,7 36,12 10,5 17,10 21,17 5,6 7,14 7,24 0,16 -6,28 -19,38 -13,9 -29,14 -49,14 -14,0 -27,-3 -38,-8 -10,-5 -19,-11 -25,-20 -6,-9 -9,-19 -9,-29l30 0c0,10 5,18 12,23 8,6 18,9 30,9 11,0 20,-2 27,-7 7,-4 11,-10 11,-18z"/>
  <path id="158" class="fil1" d="M1292 3660c13,-17 31,-25 52,-25 37,0 56,21 57,63l0 117 -31 0 0 -117c0,-12 -3,-22 -8,-28 -6,-6 -15,-9 -27,-9 -10,0 -18,3 -26,8 -7,5 -13,12 -17,20l0 126 -30 0 0 -250 30 0 0 95z"/>
  <path id="159" class="fil1" d="M1533 3815l0 -237 77 0c26,0 45,5 58,16 13,10 20,26 20,47 0,11 -3,21 -10,29 -6,9 -15,15 -25,20 12,4 23,11 30,21 7,10 11,22 11,35 0,22 -7,38 -21,50 -13,13 -33,19 -58,19l-82 0zm31 -111l0 85 52 0c14,0 26,-4 34,-11 8,-8 13,-18 13,-31 0,-29 -16,-43 -47,-43l-52 0zm0 -25l47 0c14,0 25,-4 33,-11 8,-6 12,-16 12,-27 0,-13 -3,-23 -11,-29 -8,-6 -19,-9 -35,-9l-46 0 0 76z"/>
  <path id="160" class="fil1" d="M1766 3660c13,-17 30,-25 52,-25 37,0 56,21 56,63l0 117 -30 0 0 -117c0,-12 -3,-22 -9,-28 -5,-6 -14,-9 -26,-9 -10,0 -19,3 -26,8 -7,5 -13,12 -17,20l0 126 -30 0 0 -250 30 0 0 95z"/>
  <path id="161" class="fil1" d="M2028 3815c-2,-4 -3,-10 -4,-19 -14,15 -31,22 -50,22 -18,0 -32,-5 -43,-15 -11,-10 -17,-22 -17,-37 0,-18 7,-33 21,-43 14,-10 34,-15 59,-15l29 0 0 -14c0,-10 -3,-19 -9,-25 -7,-6 -16,-9 -28,-9 -11,0 -20,2 -27,8 -7,5 -11,12 -11,19l-30 0c0,-8 3,-17 9,-25 6,-8 15,-15 26,-20 10,-4 22,-7 35,-7 20,0 36,5 47,16 12,10 18,24 18,41l0 81c0,17 2,29 7,39l0 3 -32 0zm-50 -23c9,0 18,-2 27,-7 8,-5 14,-11 18,-19l0 -37 -23 0c-37,0 -56,11 -56,33 0,9 3,17 10,22 6,6 14,8 24,8z"/>
  <path id="162" class="fil1" d="M2141 3596l0 43 33 0 0 23 -33 0 0 109c0,7 2,12 5,16 3,4 8,5 15,5 3,0 8,0 14,-2l0 25c-8,2 -15,3 -23,3 -13,0 -24,-4 -30,-12 -7,-8 -11,-20 -11,-35l0 -109 -32 0 0 -23 32 0 0 -43 30 0z"/>
  <path id="163" class="fil1" d="M2250 3596l0 43 33 0 0 23 -33 0 0 109c0,7 2,12 5,16 3,4 8,5 15,5 3,0 8,0 14,-2l0 25c-8,2 -16,3 -23,3 -14,0 -24,-4 -31,-12 -6,-8 -10,-20 -10,-35l0 -109 -32 0 0 -23 32 0 0 -43 30 0z"/>
  <path id="164" class="fil1" d="M2400 3799c0,-5 1,-10 4,-13 4,-4 8,-5 14,-5 7,0 11,1 14,5 4,3 5,8 5,13 0,5 -1,9 -5,12 -3,4 -7,5 -14,5 -6,0 -10,-1 -14,-5 -3,-3 -4,-7 -4,-12zm0 -144c0,-5 2,-9 5,-13 3,-3 8,-5 14,-5 6,0 11,2 14,5 3,4 5,8 5,13 0,5 -2,9 -5,13 -3,3 -8,5 -14,5 -6,0 -11,-2 -14,-5 -3,-4 -5,-8 -5,-13z"/>
  <path id="165" class="fil1" d="M2705 3639c0,12 -3,23 -10,32 -6,9 -14,16 -25,22 12,5 22,13 29,23 8,10 11,22 11,35 0,20 -7,37 -21,49 -13,12 -32,18 -54,18 -23,0 -41,-6 -55,-18 -14,-13 -21,-29 -21,-49 0,-13 4,-25 11,-35 7,-10 17,-18 29,-24 -10,-5 -19,-12 -25,-21 -6,-9 -9,-20 -9,-32 0,-20 6,-35 19,-47 13,-12 30,-18 51,-18 21,0 38,6 50,18 13,12 20,27 20,47zm-25 111c0,-13 -4,-24 -13,-32 -8,-9 -19,-13 -32,-13 -14,0 -25,4 -33,12 -8,9 -12,19 -12,33 0,13 4,24 12,32 8,7 19,11 33,11 14,0 25,-4 33,-11 8,-8 12,-19 12,-32zm-45 -151c-12,0 -22,4 -29,11 -7,7 -11,17 -11,30 0,12 4,22 11,29 7,8 17,11 29,11 12,0 22,-3 29,-11 7,-7 11,-17 11,-29 0,-12 -4,-22 -12,-30 -7,-7 -17,-11 -28,-11z"/>
  <path id="166" class="fil1" d="M2903 3815l-155 0 0 -22 82 -91c12,-14 21,-25 25,-34 5,-9 7,-17 7,-27 0,-12 -4,-22 -11,-30 -8,-8 -17,-12 -30,-12 -15,0 -27,4 -35,13 -8,8 -12,20 -12,35l-30 0c0,-21 7,-39 21,-53 14,-13 32,-20 56,-20 22,0 39,6 52,18 13,11 19,27 19,46 0,23 -14,51 -44,83l-64 69 119 0 0 25z"/>
  <path id="167" class="fil1" d="M3051 3710c-7,8 -14,14 -23,18 -9,5 -18,7 -29,7 -13,0 -25,-3 -35,-10 -10,-7 -18,-16 -24,-28 -5,-12 -8,-26 -8,-41 0,-15 3,-30 9,-42 6,-13 14,-23 26,-30 11,-6 24,-10 38,-10 24,0 42,9 56,27 13,17 20,41 20,71l0 9c0,46 -9,80 -27,101 -19,21 -46,32 -83,33l-6 0 0 -26 7 0c24,0 44,-7 57,-19 13,-13 20,-33 22,-60zm-47 0c10,0 20,-3 28,-9 9,-6 15,-14 19,-23l0 -12c0,-19 -4,-35 -13,-48 -9,-12 -19,-18 -33,-18 -13,0 -23,5 -31,15 -9,10 -13,23 -13,40 0,16 4,29 12,40 8,10 18,15 31,15z"/>
  <polygon id="168" class="fil1" points="3221,3815 3191,3815 3191,3614 3130,3636 3130,3609 3217,3577 3221,3577 "/>
  <path id="169" class="fil1" d="M3465 3815l-155 0 0 -22 82 -91c12,-14 20,-25 25,-34 4,-9 7,-17 7,-27 0,-12 -4,-22 -12,-30 -7,-8 -17,-12 -29,-12 -15,0 -27,4 -35,13 -9,8 -13,20 -13,35l-30 0c0,-21 7,-39 21,-53 14,-13 33,-20 57,-20 22,0 39,6 52,18 13,11 19,27 19,46 0,23 -15,51 -45,83l-63 69 119 0 0 25z"/>
  <path id="170" class="fil1" d="M3641 3639c0,12 -4,23 -10,32 -6,9 -14,16 -25,22 12,5 22,13 29,23 7,10 11,22 11,35 0,20 -7,37 -21,49 -14,12 -32,18 -54,18 -23,0 -41,-6 -55,-18 -14,-13 -21,-29 -21,-49 0,-13 4,-25 11,-35 7,-10 17,-18 29,-24 -11,-5 -19,-12 -25,-21 -6,-9 -9,-20 -9,-32 0,-20 6,-35 19,-47 13,-12 30,-18 51,-18 21,0 37,6 50,18 13,12 20,27 20,47zm-25 111c0,-13 -4,-24 -13,-32 -8,-9 -19,-13 -33,-13 -13,0 -24,4 -32,12 -8,9 -13,19 -13,33 0,13 4,24 12,32 8,7 20,11 34,11 14,0 25,-4 33,-11 8,-8 12,-19 12,-32zm-45 -151c-12,0 -22,4 -29,11 -7,7 -11,17 -11,30 0,12 4,22 11,29 7,8 17,11 29,11 12,0 21,-3 29,-11 7,-7 10,-17 10,-29 0,-12 -3,-22 -11,-30 -7,-7 -17,-11 -28,-11z"/>
  <path id="171" class="fil1" d="M3799 3710c-6,8 -13,14 -22,18 -9,5 -18,7 -29,7 -14,0 -25,-3 -36,-10 -10,-7 -18,-16 -23,-28 -6,-12 -8,-26 -8,-41 0,-15 3,-30 9,-42 6,-13 14,-23 25,-30 11,-6 24,-10 39,-10 23,0 42,9 55,27 14,17 21,41 21,71l0 9c0,46 -9,80 -28,101 -18,21 -45,32 -82,33l-6 0 0 -26 6 0c25,0 44,-7 58,-19 13,-13 20,-33 21,-60zm-46 0c10,0 19,-3 28,-9 8,-6 15,-14 19,-23l0 -12c0,-19 -5,-35 -13,-48 -9,-12 -20,-18 -33,-18 -13,0 -24,5 -32,15 -8,10 -12,23 -12,40 0,16 4,29 12,40 8,10 18,15 31,15z"/>
  <path id="172" class="fil1" d="M4020 3714c0,35 -6,61 -18,78 -12,17 -31,26 -57,26 -25,0 -44,-8 -56,-25 -12,-17 -18,-42 -19,-75l0 -41c0,-34 6,-60 18,-77 12,-17 31,-26 57,-26 25,0 44,8 56,25 12,16 18,41 19,75l0 40zm-30 -42c0,-25 -4,-44 -11,-56 -7,-11 -19,-17 -34,-17 -16,0 -27,6 -34,17 -7,12 -10,30 -11,54l0 48c0,26 4,45 11,57 8,12 19,18 34,18 15,0 26,-5 33,-17 8,-11 11,-30 12,-54l0 -50z"/>
  <path id="173" class="fil1" d="M4202 3639c0,12 -3,23 -9,32 -7,9 -15,16 -26,22 13,5 23,13 30,23 7,10 11,22 11,35 0,20 -7,37 -21,49 -14,12 -32,18 -55,18 -23,0 -41,-6 -55,-18 -13,-13 -20,-29 -20,-49 0,-13 3,-25 10,-35 7,-10 17,-18 29,-24 -10,-5 -18,-12 -24,-21 -7,-9 -10,-20 -10,-32 0,-20 7,-35 20,-47 12,-12 29,-18 50,-18 21,0 38,6 51,18 13,12 19,27 19,47zm-25 111c0,-13 -4,-24 -12,-32 -9,-9 -20,-13 -33,-13 -14,0 -25,4 -33,12 -8,9 -12,19 -12,33 0,13 4,24 12,32 8,7 19,11 33,11 14,0 25,-4 33,-11 8,-8 12,-19 12,-32zm-45 -151c-12,0 -21,4 -28,11 -8,7 -11,17 -11,30 0,12 3,22 10,29 8,8 17,11 29,11 12,0 22,-3 29,-11 7,-7 11,-17 11,-29 0,-12 -4,-22 -11,-30 -8,-7 -17,-11 -29,-11z"/>
  <path id="174" class="fil1" d="M4361 3710c-6,8 -14,14 -23,18 -8,5 -18,7 -28,7 -14,0 -26,-3 -36,-10 -10,-7 -18,-16 -24,-28 -5,-12 -8,-26 -8,-41 0,-15 3,-30 9,-42 6,-13 15,-23 26,-30 11,-6 24,-10 38,-10 24,0 42,9 56,27 13,17 20,41 20,71l0 9c0,46 -9,80 -27,101 -18,21 -46,32 -83,33l-6 0 0 -26 7 0c25,0 44,-7 57,-19 13,-13 21,-33 22,-60zm-46 0c10,0 19,-3 27,-9 9,-6 15,-14 19,-23l0 -12c0,-19 -4,-35 -13,-48 -8,-12 -19,-18 -32,-18 -14,0 -24,5 -32,15 -8,10 -12,23 -12,40 0,16 4,29 11,40 8,10 18,15 32,15z"/>
  <polygon id="175" class="fil1" points="83,4378 144,4550 204,4378 268,4378 268,4615 219,4615 219,4550 224,4438 160,4615 127,4615 63,4438 68,4550 68,4615 19,4615 19,4378 "/>
  <path id="176" class="fil1" d="M410 4615c-2,-4 -4,-10 -5,-16 -11,13 -26,19 -44,19 -17,0 -32,-5 -43,-15 -11,-10 -17,-23 -17,-38 0,-18 7,-33 21,-43 14,-10 34,-15 60,-15l21 0 0 -10c0,-8 -2,-14 -6,-19 -4,-5 -11,-8 -20,-8 -8,0 -14,2 -18,6 -5,4 -7,9 -7,15l-47 0c0,-10 3,-19 9,-28 7,-8 16,-15 27,-20 12,-5 24,-8 39,-8 21,0 39,6 51,17 13,11 20,26 20,46l0 76c0,17 2,29 7,38l0 3 -48 0zm-39 -33c7,0 13,-1 19,-5 6,-3 11,-7 13,-12l0 -30 -17 0c-24,0 -36,8 -38,24l0 3c0,6 2,11 6,14 4,4 10,6 17,6z"/>
  <path id="177" class="fil1" d="M586 4483c-7,-1 -12,-2 -17,-2 -18,0 -30,6 -35,18l0 116 -47 0 0 -176 44 0 1 21c10,-17 23,-25 40,-25 5,0 10,1 14,3l0 45z"/>
  <polygon id="178" class="fil1" points="672,4544 655,4561 655,4615 608,4615 608,4365 655,4365 655,4503 664,4492 709,4439 766,4439 702,4512 772,4615 717,4615 "/>
  <path id="179" class="fil1" d="M864 4618c-26,0 -47,-8 -63,-24 -16,-16 -24,-37 -24,-63l0 -5c0,-17 3,-33 10,-47 7,-14 17,-25 29,-32 13,-8 27,-12 43,-12 24,0 43,8 57,23 14,15 21,37 21,65l0 19 -113 0c2,12 7,21 14,28 8,7 18,10 29,10 18,0 33,-6 43,-20l23 26c-7,10 -17,18 -29,24 -12,5 -25,8 -40,8zm-5 -145c-10,0 -17,4 -23,10 -6,6 -9,15 -11,27l65 0 0 -4c0,-10 -3,-18 -8,-24 -6,-6 -13,-9 -23,-9z"/>
  <path id="180" class="fil1" d="M1020 4395l0 44 30 0 0 34 -30 0 0 88c0,7 1,11 3,14 3,3 8,4 15,4 5,0 9,0 13,-1l0 36c-9,3 -18,4 -28,4 -33,0 -50,-17 -50,-50l0 -95 -26 0 0 -34 26 0 0 -44 47 0z"/>
  <path id="181" class="fil1" d="M1125 4615l-47 0 0 -176 47 0 0 176zm-50 -222c0,-7 3,-13 8,-17 4,-5 11,-7 19,-7 8,0 14,2 19,7 5,4 7,10 7,17 0,7 -2,13 -7,18 -5,4 -11,7 -19,7 -8,0 -14,-3 -19,-7 -5,-5 -8,-11 -8,-18z"/>
  <path id="182" class="fil1" d="M1207 4439l2 20c13,-16 29,-24 51,-24 18,0 32,6 41,17 9,11 14,27 14,49l0 114 -47 0 0 -113c0,-10 -2,-17 -6,-22 -5,-4 -12,-7 -22,-7 -13,0 -23,6 -30,17l0 125 -47 0 0 -176 44 0z"/>
  <path id="183" class="fil1" d="M1344 4525c0,-27 6,-48 19,-65 13,-16 31,-25 52,-25 20,0 35,7 45,20l2 -16 43 0 0 170c0,15 -3,29 -10,40 -7,11 -17,20 -30,26 -13,6 -28,9 -45,9 -13,0 -25,-2 -37,-8 -13,-5 -22,-11 -28,-20l21 -28c11,13 26,19 42,19 13,0 22,-3 29,-10 7,-6 11,-16 11,-28l0 -9c-11,12 -25,18 -43,18 -21,0 -38,-8 -51,-25 -13,-16 -20,-38 -20,-66l0 -2zm47 4c0,16 3,28 10,37 6,10 15,14 26,14 14,0 25,-5 31,-16l0 -74c-6,-11 -17,-17 -31,-17 -11,0 -20,5 -26,14 -7,10 -10,23 -10,42z"/>
  <polygon id="184" class="fil1" points="86,4905 57,4935 57,5015 25,5015 25,4778 57,4778 57,4895 162,4778 200,4778 106,4883 207,5015 170,5015 "/>
  <path id="185" class="fil1" d="M338 5015c-1,-4 -3,-10 -4,-19 -14,15 -31,22 -50,22 -17,0 -32,-5 -43,-15 -11,-9 -16,-22 -16,-37 0,-18 7,-32 21,-43 14,-10 33,-15 58,-15l30 0 0 -14c0,-10 -3,-19 -10,-25 -6,-6 -15,-9 -28,-9 -10,0 -19,3 -27,8 -7,5 -10,12 -10,20l-31 0c0,-9 3,-18 10,-26 6,-8 14,-15 25,-19 11,-5 22,-7 35,-7 21,0 36,5 48,15 11,10 17,24 18,42l0 81c0,16 2,29 6,38l0 3 -32 0zm-50 -22c10,0 19,-3 27,-8 9,-5 15,-11 19,-19l0 -36 -24 0c-37,0 -55,10 -55,32 0,10 3,17 9,22 7,6 15,9 24,9z"/>
  <polygon id="186" class="fil1" points="467,4974 510,4839 541,4839 478,5015 455,5015 391,4839 422,4839 "/>
  <path id="187" class="fil1" d="M628 4971l41 -132 32 0 -71 203c-11,29 -28,44 -52,44l-6 -1 -11 -2 0 -24 8 1c10,0 18,-3 24,-7 6,-4 10,-11 14,-22l7 -18 -63 -174 33 0 44 132z"/>
  <path id="188" class="fil1" d="M834 5015c-2,-4 -3,-10 -4,-19 -14,15 -31,22 -50,22 -18,0 -32,-5 -43,-15 -11,-9 -17,-22 -17,-37 0,-18 7,-32 21,-43 14,-10 34,-15 59,-15l29 0 0 -14c0,-10 -3,-19 -9,-25 -6,-6 -16,-9 -28,-9 -11,0 -20,3 -27,8 -7,5 -11,12 -11,20l-30 0c0,-9 3,-18 9,-26 6,-8 15,-15 26,-19 10,-5 22,-7 35,-7 20,0 36,5 48,15 11,10 17,24 17,42l0 81c0,16 3,29 7,38l0 3 -32 0zm-50 -22c10,0 18,-3 27,-8 8,-5 15,-11 18,-19l0 -36 -23 0c-37,0 -56,10 -56,32 0,10 4,17 10,22 6,6 14,9 24,9z"/>
  <path id="189" class="fil1" d="M1025 4922l0 93 -31 0 0 -237 87 0c26,0 47,6 61,20 15,13 22,31 22,52 0,23 -7,41 -21,54 -15,12 -35,18 -62,18l-56 0zm0 -25l56 0c17,0 30,-4 39,-12 9,-8 13,-20 13,-34 0,-15 -4,-26 -13,-34 -9,-9 -21,-13 -37,-13l-58 0 0 93z"/>
  <path id="190" class="fil1" d="M1308 4998c-12,13 -29,20 -51,20 -19,0 -34,-5 -43,-16 -10,-11 -15,-27 -15,-49l0 -114 30 0 0 114c0,26 11,40 32,40 23,0 39,-9 46,-26l0 -128 30 0 0 176 -28 0 -1 -17z"/>
  <path id="191" class="fil1" d="M1468 4866c-4,-1 -9,-1 -15,-1 -19,0 -33,8 -40,25l0 125 -30 0 0 -176 29 0 1 20c10,-16 24,-23 42,-23 6,0 10,0 13,2l0 28z"/>
  <path id="192" class="fil1" d="M1605 4998c-12,13 -29,20 -52,20 -19,0 -33,-5 -43,-16 -10,-11 -15,-27 -15,-49l0 -114 30 0 0 114c0,26 11,40 33,40 23,0 38,-9 46,-26l0 -128 30 0 0 176 -29 0 0 -17z"/>
  <path id="193" class="fil1" d="M1782 4968c0,-8 -3,-14 -9,-19 -6,-4 -17,-8 -32,-11 -15,-4 -27,-8 -36,-12 -9,-5 -16,-10 -20,-16 -4,-7 -6,-14 -6,-23 0,-14 6,-27 18,-36 12,-10 28,-15 47,-15 20,0 36,5 48,15 13,10 19,23 19,40l-30 0c0,-9 -4,-16 -11,-22 -7,-6 -16,-9 -26,-9 -11,0 -20,3 -26,7 -6,5 -9,11 -9,19 0,7 3,13 8,17 6,3 16,7 31,10 15,3 28,7 37,12 9,5 16,10 21,17 4,7 6,15 6,24 0,16 -6,28 -18,38 -13,9 -29,14 -49,14 -15,0 -27,-2 -38,-7 -11,-5 -19,-12 -25,-21 -6,-9 -10,-19 -10,-29l31 0c0,10 4,18 12,24 7,6 17,9 30,9 11,0 20,-3 27,-7 7,-5 10,-11 10,-19z"/>
  <path id="194" class="fil1" d="M1882 4860c13,-16 31,-24 52,-24 37,0 56,21 56,63l0 116 -30 0 0 -117c0,-12 -3,-22 -9,-28 -5,-6 -14,-9 -26,-9 -10,0 -19,3 -26,8 -7,5 -13,12 -17,20l0 126 -30 0 0 -250 30 0 0 95z"/>
  <path id="195" class="fil1" d="M2027 4925c0,-17 4,-33 10,-46 7,-14 17,-25 29,-32 12,-8 26,-11 41,-11 24,0 44,8 58,24 15,17 23,39 23,67l0 2c0,17 -4,32 -10,46 -7,14 -16,24 -28,32 -13,7 -27,11 -43,11 -23,0 -43,-8 -58,-25 -14,-16 -22,-38 -22,-66l0 -2zm31 4c0,19 4,35 13,47 9,12 21,18 36,18 16,0 28,-6 37,-18 9,-12 13,-29 13,-51 0,-19 -4,-35 -13,-47 -9,-12 -22,-18 -37,-18 -15,0 -27,6 -36,18 -9,12 -13,29 -13,51z"/>
  <path id="196" class="fil1" d="M2266 4796l0 43 33 0 0 23 -33 0 0 109c0,7 2,13 5,16 3,4 8,6 15,6 3,0 8,-1 14,-2l0 24c-8,2 -16,3 -23,3 -14,0 -24,-4 -31,-12 -6,-8 -10,-20 -10,-35l0 -109 -32 0 0 -23 32 0 0 -43 30 0z"/>
  <path id="197" class="fil1" d="M2364 4860c14,-16 31,-24 52,-24 38,0 56,21 57,63l0 116 -30 0 0 -117c0,-12 -3,-22 -9,-28 -6,-6 -15,-9 -27,-9 -9,0 -18,3 -25,8 -8,5 -13,12 -18,20l0 126 -30 0 0 -250 30 0 0 95z"/>
  <path id="198" class="fil1" d="M2627 5015c-2,-4 -4,-10 -5,-19 -14,15 -30,22 -50,22 -17,0 -31,-5 -42,-15 -12,-9 -17,-22 -17,-37 0,-18 7,-32 21,-43 14,-10 33,-15 59,-15l29 0 0 -14c0,-10 -3,-19 -10,-25 -6,-6 -15,-9 -27,-9 -11,0 -20,3 -27,8 -8,5 -11,12 -11,20l-31 0c0,-9 4,-18 10,-26 6,-8 14,-15 25,-19 11,-5 23,-7 35,-7 21,0 37,5 48,15 12,10 18,24 18,42l0 81c0,16 2,29 6,38l0 3 -31 0zm-50 -22c9,0 18,-3 26,-8 9,-5 15,-11 19,-19l0 -36 -24 0c-37,0 -55,10 -55,32 0,10 3,17 9,22 7,6 15,9 25,9z"/>
  <path id="199" class="fil1" d="M2727 4839l1 19c13,-15 31,-22 53,-22 24,0 41,9 50,28 6,-9 13,-15 23,-21 9,-5 20,-7 33,-7 39,0 58,20 59,61l0 118 -30 0 0 -116c0,-13 -3,-22 -9,-28 -6,-7 -15,-10 -29,-10 -11,0 -20,4 -28,10 -7,7 -11,16 -13,27l0 117 -30 0 0 -115c0,-26 -12,-39 -37,-39 -20,0 -34,9 -41,25l0 129 -30 0 0 -176 28 0z"/>
  <path id="200" class="fil1" d="M3100 5015c-2,-4 -3,-10 -4,-19 -14,15 -31,22 -50,22 -18,0 -32,-5 -43,-15 -11,-9 -17,-22 -17,-37 0,-18 7,-32 21,-43 14,-10 34,-15 59,-15l29 0 0 -14c0,-10 -3,-19 -9,-25 -6,-6 -16,-9 -28,-9 -11,0 -20,3 -27,8 -7,5 -11,12 -11,20l-30 0c0,-9 3,-18 9,-26 7,-8 15,-15 26,-19 10,-5 22,-7 35,-7 20,0 36,5 48,15 11,10 17,24 17,42l0 81c0,16 3,29 7,38l0 3 -32 0zm-50 -22c10,0 19,-3 27,-8 8,-5 15,-11 18,-19l0 -36 -23 0c-37,0 -56,10 -56,32 0,10 4,17 10,22 6,6 14,9 24,9z"/>
  <path id="201" class="fil1" d="M3201 4839l1 22c14,-17 31,-25 53,-25 37,0 56,21 56,63l0 116 -30 0 0 -117c0,-12 -3,-22 -9,-28 -5,-6 -14,-9 -26,-9 -10,0 -19,3 -26,8 -7,5 -13,12 -17,20l0 126 -30 0 0 -176 28 0z"/>
  <path id="202" class="fil1" d="M3438 4999c0,-5 2,-9 5,-13 3,-3 8,-5 14,-5 6,0 11,2 14,5 3,4 5,8 5,13 0,5 -2,9 -5,13 -3,3 -8,5 -14,5 -6,0 -11,-2 -14,-5 -3,-4 -5,-8 -5,-13zm0 -144c0,-5 2,-9 5,-13 3,-3 8,-5 14,-5 6,0 11,2 14,5 3,4 5,8 5,13 0,5 -2,9 -5,13 -3,3 -8,5 -14,5 -6,0 -11,-2 -14,-5 -3,-4 -5,-8 -5,-13z"/>
  <path id="203" class="fil1" d="M3715 4911c-7,7 -14,13 -23,18 -9,4 -18,7 -29,7 -13,0 -25,-4 -35,-11 -10,-6 -18,-16 -24,-28 -5,-12 -8,-26 -8,-40 0,-16 3,-31 9,-43 6,-13 14,-23 26,-29 11,-7 24,-10 38,-10 24,0 42,8 56,26 13,17 20,41 20,71l0 9c0,46 -9,80 -27,101 -19,21 -46,32 -83,33l-6 0 0 -26 7 0c24,0 44,-7 57,-19 13,-13 20,-32 22,-59zm-47 0c10,0 20,-4 28,-10 9,-6 15,-13 19,-23l0 -11c0,-20 -4,-36 -13,-48 -9,-13 -19,-19 -33,-19 -13,0 -23,5 -31,15 -9,10 -13,24 -13,40 0,16 4,30 12,40 8,10 18,16 31,16z"/>
  <path id="204" class="fil1" d="M3902 4911c-6,7 -14,13 -23,18 -8,4 -18,7 -28,7 -14,0 -26,-4 -36,-11 -10,-6 -18,-16 -24,-28 -5,-12 -8,-26 -8,-40 0,-16 3,-31 9,-43 6,-13 15,-23 26,-29 11,-7 24,-10 38,-10 24,0 42,8 56,26 13,17 20,41 20,71l0 9c0,46 -9,80 -27,101 -18,21 -46,32 -83,33l-6 0 0 -26 7 0c25,0 44,-7 57,-19 13,-13 21,-32 22,-59zm-46 0c10,0 19,-4 27,-10 9,-6 15,-13 19,-23l0 -11c0,-20 -4,-36 -13,-48 -8,-13 -19,-19 -32,-19 -14,0 -24,5 -32,15 -8,10 -12,24 -12,40 0,16 4,30 11,40 8,10 18,16 32,16z"/>
  <path id="205" class="fil1" d="M4092 4778l0 26 -6 0c-23,0 -42,7 -56,20 -14,14 -22,33 -24,57 13,-14 30,-21 51,-21 21,0 37,7 50,21 12,15 18,34 18,57 0,24 -6,44 -20,58 -13,15 -31,22 -53,22 -23,0 -41,-9 -55,-26 -14,-17 -22,-40 -22,-67l0 -12c0,-43 10,-77 28,-100 19,-23 47,-35 83,-35l6 0zm-40 107c-10,0 -20,3 -28,9 -9,7 -15,14 -18,24l0 11c0,19 4,35 13,46 9,12 20,18 33,18 13,0 24,-5 32,-15 8,-10 11,-23 11,-39 0,-16 -4,-29 -11,-39 -8,-10 -19,-15 -32,-15z"/>
  <path id="206" class="fil1" d="M4276 4911c-6,7 -14,13 -22,18 -9,4 -19,7 -29,7 -14,0 -26,-4 -36,-11 -10,-6 -18,-16 -23,-28 -6,-12 -9,-26 -9,-40 0,-16 3,-31 9,-43 6,-13 15,-23 26,-29 11,-7 24,-10 39,-10 23,0 42,8 55,26 14,17 21,41 21,71l0 9c0,46 -10,80 -28,101 -18,21 -46,32 -82,33l-6 0 0 -26 6 0c25,0 44,-7 57,-19 14,-13 21,-32 22,-59zm-46 0c10,0 19,-4 28,-10 8,-6 14,-13 18,-23l0 -11c0,-20 -4,-36 -12,-48 -9,-13 -20,-19 -33,-19 -13,0 -24,5 -32,15 -8,10 -12,24 -12,40 0,16 4,30 12,40 7,10 18,16 31,16z"/>
  <polygon id="207" class="fil1" points="4447,5015 4417,5015 4417,4814 4356,4837 4356,4809 4442,4777 4447,4777 "/>
  <path id="208" class="fil1" d="M4684 4914c0,35 -6,61 -18,78 -12,18 -31,26 -57,26 -25,0 -44,-8 -56,-25 -12,-17 -18,-42 -19,-75l0 -40c0,-35 6,-61 18,-78 12,-17 31,-25 57,-25 25,0 44,8 56,24 12,16 18,42 19,76l0 39zm-30 -42c0,-25 -4,-44 -11,-55 -7,-12 -19,-18 -34,-18 -16,0 -27,6 -34,18 -7,11 -10,29 -11,53l0 48c0,26 4,45 11,57 8,12 19,19 34,19 15,0 26,-6 33,-18 8,-11 11,-29 12,-54l0 -50z"/>
  <path id="209" class="fil1" d="M4878 5015l-156 0 0 -22 82 -91c13,-14 21,-25 26,-34 4,-8 6,-17 6,-26 0,-13 -3,-23 -11,-31 -7,-8 -17,-12 -30,-12 -15,0 -26,4 -35,13 -8,9 -12,20 -12,36l-30 0c0,-22 7,-40 21,-53 14,-14 33,-20 56,-20 22,0 40,5 52,17 13,11 20,27 20,46 0,23 -15,51 -45,83l-63 69 119 0 0 25z"/>
  <path id="210" class="fil1" d="M4953 4882l23 0c14,0 25,-4 33,-11 9,-8 13,-18 13,-30 0,-28 -14,-42 -42,-42 -13,0 -23,4 -31,11 -8,8 -12,18 -12,30l-30 0c0,-19 7,-34 21,-47 14,-12 31,-18 52,-18 22,0 40,5 53,17 12,12 19,29 19,50 0,10 -4,20 -10,30 -7,9 -16,17 -28,21 14,5 24,11 31,21 7,9 10,21 10,35 0,21 -7,38 -21,50 -13,13 -31,19 -54,19 -22,0 -40,-6 -54,-18 -14,-12 -21,-28 -21,-48l30 0c0,13 4,23 13,30 8,8 19,12 32,12 15,0 26,-4 34,-12 7,-7 11,-18 11,-32 0,-14 -4,-25 -12,-32 -9,-7 -21,-11 -37,-11l-23 0 0 -25z"/>
  <path id="211" class="fil1" d="M5240 4840c0,11 -3,22 -9,31 -6,9 -15,17 -25,22 12,5 22,13 29,23 7,10 11,22 11,35 0,20 -7,37 -21,49 -14,12 -32,18 -54,18 -23,0 -41,-6 -55,-18 -14,-12 -21,-29 -21,-49 0,-13 4,-25 11,-35 7,-10 16,-18 29,-23 -11,-6 -19,-13 -25,-22 -6,-9 -9,-20 -9,-31 0,-20 6,-36 19,-48 13,-12 30,-17 51,-17 20,0 37,5 50,17 13,12 19,28 19,48zm-24 110c0,-13 -4,-24 -13,-32 -8,-9 -19,-13 -33,-13 -13,0 -24,4 -32,13 -9,8 -13,19 -13,32 0,14 4,24 12,32 8,8 19,12 34,12 14,0 25,-4 33,-12 8,-8 12,-18 12,-32zm-45 -151c-12,0 -22,4 -29,11 -7,8 -11,18 -11,30 0,12 3,22 11,29 7,8 17,12 29,12 12,0 21,-4 28,-12 8,-7 11,-17 11,-29 0,-12 -3,-22 -11,-29 -7,-8 -17,-12 -28,-12z"/>
  <path id="212" class="fil1" d="M5298 4896l12 -118 121 0 0 28 -96 0 -7 64c12,-6 25,-10 40,-10 21,0 38,7 51,22 13,14 19,33 19,57 0,25 -6,44 -20,58 -13,14 -31,21 -55,21 -21,0 -38,-6 -51,-17 -13,-12 -21,-28 -23,-48l29 0c2,13 6,23 14,30 8,7 18,11 31,11 14,0 25,-5 33,-15 8,-9 12,-22 12,-39 0,-16 -4,-29 -13,-38 -9,-10 -20,-15 -34,-15 -13,0 -24,3 -31,9l-8 6 -24 -6z"/>
 </g>
</svg>
