<?xml version="1.0" encoding="UTF-8"?>
<!DOCTYPE svg PUBLIC "-//W3C//DTD SVG 1.1//EN" "http://www.w3.org/Graphics/SVG/1.1/DTD/svg11.dtd">
<!-- Creator: CorelDRAW X7 -->
<svg xmlns="http://www.w3.org/2000/svg" xml:space="preserve" width="180.693mm" height="108.238mm" version="1.1" style="shape-rendering:geometricPrecision; text-rendering:geometricPrecision; image-rendering:optimizeQuality; fill-rule:evenodd; clip-rule:evenodd"
viewBox="0 0 18069 10824"
 xmlns:xlink="http://www.w3.org/1999/xlink">
 <defs>
  <style type="text/css">
   <![CDATA[
    .fil3 {fill:none}
    .fil2 {fill:#2B2A29;fill-rule:nonzero}
    .fil1 {fill:#2B2A29;fill-rule:nonzero}
    .fil0 {fill:#2B2A29;fill-rule:nonzero}
   ]]>
  </style>
 </defs>
 <g id="Layer_x0020_1">
  <metadata id="CorelCorpID_0Corel-Layer"/>
  <g id="_2746847631408">
   <g>
    <polygon class="fil0" points="370,617 281,716 281,953 62,953 62,51 281,51 281,450 354,335 550,51 819,51 514,450 819,953 560,953 "/>
    <path id="_1" class="fil0" d="M1233 51l219 0 0 620c0,58 -16,109 -41,155 -28,43 -63,78 -112,104 -48,25 -101,35 -160,35 -99,0 -175,-23 -228,-73 -56,-49 -82,-120 -82,-211l219 0c0,40 5,71 20,89 15,20 38,28 71,28 31,0 54,-11 71,-33 16,-23 23,-54 23,-94l0 -620 0 0z"/>
    <path id="_2" class="fil0" d="M2054 716c0,-33 -10,-58 -33,-76 -23,-18 -64,-38 -120,-56 -56,-20 -104,-38 -139,-56 -117,-56 -176,-137 -176,-236 0,-51 16,-94 43,-132 31,-38 72,-69 125,-89 53,-23 114,-33 180,-33 64,0 122,13 176,36 50,23 91,56 119,99 28,40 43,91 43,145l-218 0c0,-36 -10,-66 -33,-87 -23,-20 -54,-30 -92,-30 -38,0 -68,10 -91,28 -23,15 -36,38 -36,63 0,26 13,46 38,64 26,20 69,38 132,58 61,20 112,43 153,66 96,56 147,135 147,234 0,79 -30,140 -89,185 -61,46 -142,66 -246,66 -74,0 -140,-12 -198,-38 -59,-25 -104,-61 -135,-107 -30,-45 -46,-99 -46,-157l219 0c0,48 13,84 38,107 25,23 66,35 122,35 35,0 63,-7 86,-23 21,-17 31,-38 31,-66l0 0z"/>
    <path id="_3" class="fil0" d="M3113 648c-3,63 -20,119 -51,167 -30,49 -74,84 -129,112 -56,26 -120,38 -193,38 -120,0 -211,-38 -280,-114 -68,-79 -101,-188 -101,-328l0 -45c0,-89 15,-166 45,-232 31,-66 74,-116 132,-155 59,-35 125,-53 201,-53 109,0 198,28 264,86 66,59 104,138 114,239l-218 0c0,-56 -15,-94 -41,-119 -25,-23 -66,-36 -119,-36 -53,0 -94,21 -119,61 -26,41 -38,104 -38,193l0 66c0,97 10,165 35,206 25,41 66,61 125,61 50,0 88,-10 114,-33 28,-25 40,-63 43,-114l216 0 0 0z"/>
    <polygon id="_4" class="fil0" points="3776,569 3436,569 3436,785 3839,785 3839,953 3217,953 3217,51 3839,51 3839,218 3436,218 3436,409 3776,409 "/>
    <path id="_5" class="fil0" d="M4708 716c0,-33 -10,-58 -33,-76 -23,-18 -61,-38 -119,-56 -56,-20 -102,-38 -137,-56 -117,-56 -176,-137 -176,-236 0,-51 13,-94 43,-132 28,-38 72,-69 125,-89 51,-23 112,-33 178,-33 66,0 124,13 175,36 51,23 91,56 119,99 31,40 44,91 44,145l-216 0c0,-36 -13,-66 -36,-87 -23,-20 -53,-30 -91,-30 -38,0 -69,10 -92,28 -23,15 -33,38 -33,63 0,26 13,46 36,64 25,20 68,38 132,58 63,20 114,43 152,66 99,56 148,135 148,234 0,79 -31,140 -89,185 -59,46 -143,66 -244,66 -74,0 -140,-12 -201,-38 -58,-25 -104,-61 -132,-107 -30,-45 -46,-99 -46,-157l219 0c0,48 13,84 38,107 23,23 63,35 122,35 35,0 63,-7 84,-23 20,-17 30,-38 30,-66l0 0z"/>
    <path id="_6" class="fil0" d="M5272 117l0 165 109 0 0 145 -109 0 0 310c0,25 5,43 13,53 10,10 28,15 56,15 20,0 38,-2 50,-5l0 147c-38,13 -76,18 -116,18 -74,0 -125,-15 -160,-51 -33,-33 -51,-83 -51,-152l0 -335 -87 0 0 -145 87 0 0 -165 208 0 0 0z"/>
    <path id="_7" class="fil0" d="M5864 881c-43,56 -104,84 -178,84 -74,0 -129,-20 -168,-63 -38,-43 -55,-104 -55,-183l0 -437 208 0 0 437c0,58 28,86 84,86 48,0 81,-18 101,-51l0 -472 211 0 0 671 -195 0 -8 -72z"/>
    <path id="_8" class="fil0" d="M6156 615c0,-107 23,-191 69,-252 45,-61 109,-94 190,-94 61,0 112,26 153,71l0 -340 210 0 0 953 -188 0 -12 -72c-41,56 -97,84 -163,84 -79,0 -142,-30 -190,-91 -46,-61 -69,-148 -69,-259l0 0zm208 12c0,120 36,178 104,178 46,0 79,-20 100,-58l0 -257c-18,-38 -51,-58 -100,-58 -63,0 -99,51 -104,155l0 40 0 0z"/>
    <path id="_9" class="fil0" d="M7220 965c-104,0 -185,-30 -249,-91 -63,-61 -96,-140 -96,-239l0 -18c0,-68 13,-129 38,-183 25,-50 63,-91 112,-122 48,-27 106,-43 172,-43 94,0 171,31 224,89 56,59 81,140 81,244l0 81 -414 0c8,38 23,69 49,89 25,23 58,33 99,33 66,0 116,-23 155,-68l94 111c-26,36 -64,66 -110,87 -48,20 -99,30 -155,30l0 0zm-23 -533c-60,0 -99,40 -109,122l211 0 0 -15c0,-36 -8,-61 -25,-79 -18,-18 -43,-28 -77,-28l0 0z"/>
    <path id="_10" class="fil0" d="M7779 282l8 79c46,-61 109,-92 190,-92 71,0 122,23 158,64 33,43 51,104 53,188l0 432 -211 0 0 -422c0,-36 -5,-59 -20,-76 -13,-16 -38,-23 -74,-23 -40,0 -71,15 -91,48l0 473 -208 0 0 -671 195 0 0 0z"/>
    <path id="_11" class="fil0" d="M8546 117l0 165 112 0 0 145 -112 0 0 310c0,25 5,43 16,53 7,10 25,15 53,15 20,0 38,-2 51,-5l0 147c-36,13 -77,18 -117,18 -71,0 -125,-15 -160,-51 -33,-33 -51,-83 -51,-152l0 -335 -86 0 0 -145 86 0 0 -165 208 0 0 0z"/>
    <path id="_12" class="fil0" d="M9090 765c0,-18 -8,-31 -28,-44 -18,-10 -53,-20 -104,-33 -54,-10 -97,-25 -130,-45 -33,-18 -61,-41 -78,-69 -18,-25 -26,-56 -26,-91 0,-61 26,-112 76,-153 51,-40 117,-61 198,-61 89,0 160,21 214,61 56,41 81,94 81,158l-208 0c0,-54 -28,-82 -87,-82 -20,0 -40,8 -53,21 -15,12 -23,28 -23,45 0,18 8,34 26,46 20,10 48,21 89,28 38,8 73,15 104,26 101,35 152,99 152,188 0,60 -28,111 -81,149 -56,38 -127,56 -214,56 -55,0 -106,-10 -152,-30 -46,-21 -81,-48 -107,-84 -25,-36 -35,-74 -35,-112l193 0c2,31 13,54 33,69 18,12 43,20 76,20 28,0 48,-5 64,-18 15,-10 20,-25 20,-45l0 0z"/>
    <path id="_13" class="fil0" d="M9463 333l-91 -48c35,-61 53,-120 53,-176l0 -109 153 0 0 102c0,38 -11,81 -33,124 -23,43 -49,79 -82,107l0 0z"/>
    <path id="_14" class="fil0" d="M10754 648c-3,63 -18,119 -51,167 -31,49 -74,84 -130,112 -56,26 -119,38 -193,38 -117,0 -211,-38 -279,-114 -69,-79 -102,-188 -102,-328l0 -45c0,-89 15,-166 46,-232 30,-66 76,-116 132,-155 58,-35 125,-53 201,-53 112,0 198,28 264,86 68,59 104,138 114,239l-216 0c-2,-56 -15,-94 -43,-119 -25,-23 -66,-36 -119,-36 -54,0 -94,21 -117,61 -26,41 -41,104 -41,193l0 66c0,97 13,165 36,206 25,41 66,61 124,61 51,0 89,-10 117,-33 26,-25 38,-63 41,-114l216 0 0 0z"/>
    <path id="_15" class="fil0" d="M10822 612c0,-66 13,-127 38,-178 26,-53 64,-94 112,-122 51,-27 107,-43 173,-43 101,0 180,33 239,94 56,64 86,148 86,254l0 8c0,104 -30,188 -89,249 -56,61 -135,91 -234,91 -96,0 -172,-28 -231,-84 -58,-58 -89,-134 -94,-233l0 -36 0 0zm209 13c0,63 10,107 30,137 18,28 48,43 86,43 74,0 112,-58 112,-172l0 -21c0,-119 -38,-180 -114,-180 -69,0 -107,51 -114,155l0 38 0 0z"/>
    <path id="_16" class="fil0" d="M11960 881c-43,56 -104,84 -178,84 -73,0 -129,-20 -167,-63 -38,-43 -56,-104 -56,-183l0 -437 208 0 0 437c0,58 28,86 84,86 48,0 81,-18 102,-51l0 -472 210 0 0 671 -195 0 -8 -72z"/>
    <path id="_17" class="fil0" d="M12471 282l5 79c46,-61 112,-92 193,-92 69,0 122,23 155,64 35,43 53,104 53,188l0 432 -208 0 0 -422c0,-36 -8,-59 -20,-76 -16,-16 -38,-23 -74,-23 -43,0 -74,15 -91,48l0 473 -211 0 0 -671 198 0 0 0z"/>
    <path id="_18" class="fil0" d="M13279 805c28,0 50,-7 68,-23 15,-17 23,-38 23,-68l196 0c0,73 -26,134 -79,183 -53,45 -122,68 -203,68 -99,0 -176,-30 -231,-91 -56,-61 -84,-145 -84,-254l0 -8c0,-68 12,-127 35,-180 26,-51 64,-92 109,-120 49,-27 105,-43 168,-43 86,0 158,26 208,74 51,48 77,114 77,196l-196 0c0,-33 -8,-61 -25,-79 -18,-18 -41,-28 -69,-28 -53,0 -86,35 -94,104 -2,20 -5,51 -5,89 0,68 8,114 23,142 18,26 43,38 79,38z"/>
    <path id="_19" class="fil0" d="M13876 953l-211 0 0 -671 211 0 0 671zm-224 -844c0,-30 10,-53 33,-73 20,-18 48,-28 84,-28 33,0 61,10 84,28 20,20 30,43 30,73 0,31 -10,56 -30,74 -23,20 -51,28 -84,28 -36,0 -64,-8 -84,-28 -23,-18 -33,-43 -33,-74z"/>
    <polygon id="_20" class="fil0" points="14224,953 14013,953 14013,0 14224,0 "/>
    <polygon id="_21" class="fil0" points="15128,953 14920,953 14920,290 14711,348 14711,188 15107,51 15128,51 "/>
    <polygon id="_22" class="fil0" points="16027,163 15692,953 15471,953 15809,211 15377,211 15377,51 16027,51 "/>
    <polygon id="_23" class="fil0" points="16548,645 16174,645 16174,483 16548,483 "/>
    <polygon id="_24" class="fil0" points="17170,953 16962,953 16962,290 16753,348 16753,188 17150,51 17170,51 "/>
    <path id="_25" class="fil0" d="M18052 292c0,43 -11,81 -34,114 -20,33 -50,61 -88,82 43,20 76,51 101,86 26,38 38,81 38,130 0,81 -28,144 -84,193 -55,45 -132,68 -228,68 -99,0 -175,-23 -234,-68 -56,-49 -84,-112 -84,-193 0,-49 13,-92 38,-127 23,-38 59,-69 105,-89 -38,-21 -69,-49 -89,-82 -23,-33 -33,-71 -33,-114 0,-79 25,-140 78,-185 54,-46 125,-69 216,-69 92,0 165,23 216,69 54,45 82,106 82,185l0 0zm-191 396c0,-38 -10,-66 -30,-86 -18,-20 -44,-30 -77,-30 -30,0 -56,10 -76,30 -18,20 -28,48 -28,86 0,36 10,64 28,87 20,20 46,30 79,30 30,0 56,-10 74,-30 20,-21 30,-51 30,-87zm-107 -490c-28,0 -48,10 -63,28 -15,18 -23,43 -23,76 0,33 8,59 23,79 15,20 35,28 66,28 28,0 48,-8 63,-28 16,-20 21,-46 21,-79 0,-30 -5,-56 -21,-76 -15,-18 -38,-28 -66,-28z"/>
   </g>
   <g>
    <polygon id="_175" class="fil0" points="274,8471 477,9043 676,8471 889,8471 889,9259 726,9259 726,9043 743,8670 530,9259 420,9259 208,8670 224,9043 224,9259 61,9259 61,8471 "/>
    <path id="_176" class="fil0" d="M1361 9259c-7,-14 -13,-34 -17,-54 -36,44 -86,64 -146,64 -57,0 -106,-17 -143,-50 -36,-33 -56,-77 -56,-127 0,-59 23,-109 69,-142 47,-34 113,-50 200,-50l70 0 0 -34c0,-26 -7,-46 -20,-63 -14,-16 -37,-26 -67,-26 -26,0 -46,6 -60,20 -16,13 -23,30 -23,50l-156 0c0,-34 10,-64 30,-93 23,-27 53,-50 89,-67 40,-17 80,-27 130,-27 70,0 130,20 170,57 43,37 66,86 66,153l0 252c0,57 7,97 23,127l0 10 -159 0 0 0zm-130 -110c23,0 43,-3 63,-17 20,-10 37,-23 44,-40l0 -99 -57 0c-80,0 -120,26 -126,80l0 10c0,19 6,36 20,46 13,13 33,20 56,20l0 0z"/>
    <path id="_177" class="fil0" d="M1946 8820c-24,-3 -40,-7 -57,-7 -60,0 -100,20 -116,60l0 386 -156 0 0 -585 146 0 3 70c33,-57 77,-84 133,-84 17,0 33,4 47,10l0 150 0 0z"/>
    <polygon id="_178" class="fil0" points="2231,9023 2175,9079 2175,9259 2019,9259 2019,8428 2175,8428 2175,8886 2205,8850 2354,8674 2544,8674 2331,8916 2564,9259 2381,9259 "/>
    <path id="_179" class="fil0" d="M2869 9269c-86,0 -156,-27 -209,-80 -53,-53 -80,-123 -80,-210l0 -16c0,-57 10,-110 34,-156 23,-47 56,-83 96,-107 43,-26 90,-40 143,-40 80,0 143,27 189,77 47,50 70,123 70,216l0 63 -375 0c6,40 23,70 46,93 27,23 60,33 96,33 60,0 110,-20 143,-66l77 86c-23,33 -57,60 -97,80 -39,17 -83,27 -133,27l0 0zm-16 -482c-33,0 -57,13 -77,33 -19,20 -29,50 -36,90l216 0 0 -14c0,-33 -10,-59 -27,-79 -20,-20 -43,-30 -76,-30l0 0z"/>
    <path id="_180" class="fil0" d="M3388 8528l0 146 100 0 0 113 -100 0 0 292c0,23 3,37 10,47 10,10 26,13 50,13 16,0 30,0 43,-3l0 119c-30,10 -60,14 -93,14 -110,0 -166,-57 -166,-167l0 -315 -87 0 0 -113 87 0 0 -146 156 0z"/>
    <path id="_181" class="fil0" d="M3737 9259l-156 0 0 -585 156 0 0 585zm-166 -738c0,-23 10,-43 26,-57 14,-16 37,-23 63,-23 27,0 47,7 64,23 16,14 23,34 23,57 0,23 -7,43 -23,60 -17,13 -37,23 -64,23 -26,0 -46,-10 -63,-23 -16,-17 -26,-37 -26,-60z"/>
    <path id="_182" class="fil0" d="M4009 8674l7 66c43,-53 96,-80 169,-80 60,0 107,20 137,57 30,37 46,90 46,163l0 379 -156 0 0 -376c0,-33 -7,-56 -20,-73 -17,-13 -40,-23 -73,-23 -43,0 -76,20 -100,56l0 416 -156 0 0 -585 146 0 0 0z"/>
    <path id="_183" class="fil0" d="M4465 8960c0,-90 19,-160 63,-216 43,-54 103,-84 172,-84 67,0 117,24 150,67l7 -53 143 0 0 565c0,50 -10,96 -34,133 -23,36 -56,66 -99,86 -44,20 -93,30 -150,30 -43,0 -83,-7 -123,-27 -43,-16 -73,-36 -93,-66l70 -93c36,43 86,63 139,63 44,0 74,-10 97,-33 23,-20 36,-53 36,-93l0 -30c-36,40 -83,60 -143,60 -69,0 -126,-27 -169,-83 -43,-54 -66,-127 -66,-220l0 -6 0 0zm156 13c0,53 10,93 33,123 20,33 50,46 86,46 47,0 83,-16 103,-53l0 -246c-20,-36 -56,-56 -103,-56 -36,0 -66,16 -86,46 -23,34 -33,77 -33,140l0 0z"/>
    <polygon id="_184" class="fil0" points="284,10222 188,10322 188,10588 81,10588 81,9800 188,9800 188,10189 537,9800 663,9800 351,10149 686,10588 563,10588 "/>
    <path id="_185" class="fil0" d="M1122 10588c-4,-13 -10,-33 -14,-63 -46,50 -103,73 -166,73 -56,0 -106,-17 -143,-50 -36,-30 -53,-73 -53,-123 0,-60 23,-106 70,-143 46,-33 109,-50 193,-50l99 0 0 -46c0,-33 -10,-63 -33,-83 -20,-20 -50,-30 -93,-30 -33,0 -63,10 -90,26 -23,17 -33,40 -33,67l-103 0c0,-30 10,-60 33,-87 20,-26 47,-49 83,-63 37,-16 73,-23 117,-23 69,0 119,17 159,50 37,33 57,80 60,139l0 270c0,53 7,96 20,126l0 10 -106 0 0 0zm-167 -73c34,0 64,-10 90,-27 30,-16 50,-36 63,-63l0 -120 -80 0c-122,0 -182,34 -182,107 0,33 10,56 30,73 23,20 49,30 79,30l0 0z"/>
    <polygon id="_186" class="fil0" points="1550,10452 1693,10003 1796,10003 1587,10588 1510,10588 1298,10003 1401,10003 "/>
    <path id="_187" class="fil0" d="M2085 10442l136 -439 107 0 -236 675c-37,96 -93,146 -173,146l-20 -4 -36 -6 0 -80 26 3c33,0 60,-10 80,-23 20,-13 33,-36 46,-73l24 -60 -210 -578 110 0 146 439 0 0z"/>
    <path id="_188" class="fil0" d="M2770 10588c-7,-13 -10,-33 -14,-63 -46,50 -103,73 -166,73 -59,0 -106,-17 -143,-50 -36,-30 -56,-73 -56,-123 0,-60 23,-106 70,-143 46,-33 113,-50 196,-50l96 0 0 -46c0,-33 -10,-63 -30,-83 -20,-20 -53,-30 -93,-30 -36,0 -66,10 -90,26 -23,17 -36,40 -36,67l-100 0c0,-30 10,-60 30,-87 20,-26 50,-49 87,-63 33,-16 73,-23 116,-23 66,0 119,17 159,50 37,33 57,80 57,139l0 270c0,53 10,96 23,126l0 10 -106 0 0 0zm-166 -73c33,0 59,-10 89,-27 27,-16 50,-36 60,-63l0 -120 -76 0c-123,0 -186,34 -186,107 0,33 13,56 33,73 20,20 46,30 80,30l0 0z"/>
    <path id="_189" class="fil0" d="M3405 10279l0 309 -104 0 0 -788 290 0c86,0 156,20 202,67 50,43 73,103 73,173 0,76 -23,136 -69,179 -50,40 -117,60 -206,60l-186 0zm0 -83l186 0c56,0 99,-14 129,-40 30,-27 43,-67 43,-113 0,-50 -13,-87 -43,-113 -30,-30 -70,-43 -123,-43l-192 0 0 309 0 0z"/>
    <path id="_190" class="fil0" d="M4345 10531c-40,44 -96,67 -170,67 -63,0 -113,-17 -142,-53 -34,-37 -50,-90 -50,-163l0 -379 99 0 0 379c0,86 37,133 107,133 76,0 129,-30 153,-87l0 -425 99 0 0 585 -93 0 -3 -57 0 0z"/>
    <path id="_191" class="fil0" d="M4877 10093c-14,-4 -30,-4 -50,-4 -63,0 -110,27 -133,83l0 416 -100 0 0 -585 97 0 3 66c33,-53 80,-76 139,-76 20,0 34,0 44,7l0 93z"/>
    <path id="_192" class="fil0" d="M5332 10531c-40,44 -96,67 -173,67 -63,0 -110,-17 -143,-53 -33,-37 -50,-90 -50,-163l0 -379 100 0 0 379c0,86 37,133 110,133 76,0 126,-30 153,-87l0 -425 99 0 0 585 -96 0 0 -57 0 0z"/>
    <path id="_193" class="fil0" d="M5920 10432c0,-27 -10,-47 -30,-63 -20,-14 -56,-27 -106,-37 -50,-13 -90,-27 -120,-40 -30,-17 -53,-33 -66,-53 -14,-23 -20,-47 -20,-76 0,-47 20,-90 60,-120 39,-33 93,-50 156,-50 66,0 119,17 159,50 44,33 63,76 63,133l-99 0c0,-30 -14,-53 -37,-73 -23,-20 -53,-30 -86,-30 -37,0 -67,10 -87,23 -20,17 -29,37 -29,63 0,23 9,43 26,57 20,10 53,23 103,33 50,10 93,23 123,40 30,16 53,33 70,56 13,24 20,50 20,80 0,53 -20,93 -60,126 -43,30 -96,47 -163,47 -50,0 -90,-7 -126,-23 -37,-17 -63,-40 -83,-70 -20,-30 -33,-63 -33,-97l103 0c0,34 13,60 39,80 24,20 57,30 100,30 37,0 67,-10 90,-23 23,-17 33,-37 33,-63l0 0z"/>
    <path id="_194" class="fil0" d="M6252 10073c44,-53 103,-80 173,-80 123,0 186,70 186,209l0 386 -99 0 0 -389c0,-40 -10,-73 -30,-93 -17,-20 -47,-30 -87,-30 -33,0 -63,10 -86,27 -23,16 -43,40 -57,66l0 419 -99 0 0 -831 99 0 0 316 0 0z"/>
    <path id="_195" class="fil0" d="M6734 10289c0,-57 14,-110 33,-153 24,-47 57,-83 97,-106 40,-27 86,-37 136,-37 80,0 146,27 193,80 50,56 76,129 76,222l0 7c0,57 -13,106 -33,153 -23,46 -53,80 -93,106 -43,24 -90,37 -143,37 -76,0 -143,-27 -193,-83 -46,-53 -73,-127 -73,-220l0 -6zm103 13c0,63 14,116 43,156 30,40 70,60 120,60 53,0 93,-20 123,-60 30,-40 43,-96 43,-169 0,-63 -13,-117 -43,-156 -30,-40 -73,-60 -123,-60 -50,0 -90,20 -120,60 -29,39 -43,96 -43,169z"/>
    <path id="_196" class="fil0" d="M7528 9860l0 143 110 0 0 76 -110 0 0 363c0,23 7,43 17,53 10,13 27,20 50,20 10,0 26,-4 46,-7l0 80c-26,7 -53,10 -76,10 -47,0 -80,-13 -103,-40 -20,-27 -33,-67 -33,-116l0 -363 -107 0 0 -76 107 0 0 -143 99 0z"/>
    <path id="_197" class="fil0" d="M7854 10073c47,-53 103,-80 173,-80 126,0 186,70 189,209l0 386 -99 0 0 -389c0,-40 -10,-73 -30,-93 -20,-20 -50,-30 -90,-30 -30,0 -60,10 -83,27 -27,16 -43,40 -60,66l0 419 -100 0 0 -831 100 0 0 316 0 0z"/>
    <path id="_198" class="fil0" d="M8728 10588c-7,-13 -13,-33 -17,-63 -46,50 -99,73 -166,73 -56,0 -103,-17 -139,-50 -40,-30 -57,-73 -57,-123 0,-60 24,-106 70,-143 47,-33 110,-50 196,-50l96 0 0 -46c0,-33 -10,-63 -33,-83 -20,-20 -50,-30 -89,-30 -37,0 -67,10 -90,26 -27,17 -37,40 -37,67l-103 0c0,-30 14,-60 33,-87 20,-26 47,-49 84,-63 36,-16 76,-23 116,-23 70,0 123,17 159,50 40,33 60,80 60,139l0 270c0,53 7,96 20,126l0 10 -103 0 0 0zm-166 -73c30,0 60,-10 86,-27 30,-16 50,-36 63,-63l0 -120 -79 0c-123,0 -183,34 -183,107 0,33 10,56 30,73 23,20 50,30 83,30l0 0z"/>
    <path id="_199" class="fil0" d="M9060 10003l4 63c43,-50 103,-73 176,-73 80,0 136,30 166,93 20,-30 43,-50 76,-70 30,-16 67,-23 110,-23 130,0 193,66 196,203l0 392 -100 0 0 -386c0,-43 -10,-73 -29,-93 -20,-23 -50,-33 -97,-33 -36,0 -66,13 -93,33 -23,24 -36,53 -43,90l0 389 -100 0 0 -382c0,-87 -40,-130 -123,-130 -66,0 -113,30 -136,83l0 429 -100 0 0 -585 93 0 0 0z"/>
    <path id="_200" class="fil0" d="M10300 10588c-7,-13 -10,-33 -13,-63 -47,50 -103,73 -167,73 -59,0 -106,-17 -142,-50 -37,-30 -57,-73 -57,-123 0,-60 23,-106 70,-143 46,-33 113,-50 196,-50l96 0 0 -46c0,-33 -10,-63 -30,-83 -20,-20 -53,-30 -93,-30 -36,0 -66,10 -89,26 -24,17 -37,40 -37,67l-100 0c0,-30 10,-60 30,-87 24,-26 50,-49 87,-63 33,-16 73,-23 116,-23 66,0 120,17 159,50 37,33 57,80 57,139l0 270c0,53 10,96 23,126l0 10 -106 0 0 0zm-166 -73c33,0 63,-10 89,-27 27,-16 50,-36 60,-63l0 -120 -76 0c-123,0 -186,34 -186,107 0,33 13,56 33,73 20,20 47,30 80,30l0 0z"/>
    <path id="_201" class="fil0" d="M10636 10003l3 73c46,-56 103,-83 176,-83 123,0 186,70 186,209l0 386 -100 0 0 -389c0,-40 -10,-73 -30,-93 -16,-20 -46,-30 -86,-30 -33,0 -63,10 -86,27 -24,16 -44,40 -57,66l0 419 -99 0 0 -585 93 0 0 0z"/>
    <path id="_202" class="fil0" d="M11423 10535c0,-17 7,-30 17,-44 10,-9 26,-16 46,-16 20,0 37,7 47,16 10,14 16,27 16,44 0,16 -6,30 -16,43 -10,10 -27,16 -47,16 -20,0 -36,-6 -46,-16 -10,-13 -17,-27 -17,-43zm0 -479c0,-16 7,-30 17,-43 10,-10 26,-17 46,-17 20,0 37,7 47,17 10,13 16,27 16,43 0,17 -6,30 -16,43 -10,10 -27,17 -47,17 -20,0 -36,-7 -46,-17 -10,-13 -17,-26 -17,-43z"/>
    <path id="_203" class="fil0" d="M12344 10242c-24,24 -47,43 -77,60 -30,13 -60,23 -96,23 -43,0 -83,-13 -116,-36 -34,-20 -60,-53 -80,-93 -17,-40 -27,-87 -27,-133 0,-53 10,-103 30,-143 20,-43 47,-77 86,-96 37,-24 80,-34 127,-34 80,0 139,27 186,87 43,56 66,136 66,236l0 30c0,152 -30,265 -89,335 -64,70 -153,107 -276,110l-20 0 0 -87 23 0c80,0 146,-23 190,-63 43,-43 66,-106 73,-196l0 0zm-157 0c34,0 67,-13 93,-33 30,-20 50,-43 64,-76l0 -37c0,-66 -14,-120 -44,-159 -30,-44 -63,-64 -109,-64 -43,0 -77,17 -103,50 -30,33 -43,80 -43,133 0,53 13,100 39,133 27,33 60,53 103,53l0 0z"/>
    <path id="_204" class="fil0" d="M12965 10242c-20,24 -47,43 -76,60 -27,13 -60,23 -93,23 -47,0 -87,-13 -120,-36 -33,-20 -60,-53 -80,-93 -16,-40 -26,-87 -26,-133 0,-53 10,-103 29,-143 20,-43 50,-77 87,-96 36,-24 80,-34 126,-34 80,0 140,27 186,87 43,56 67,136 67,236l0 30c0,152 -30,265 -90,335 -60,70 -153,107 -276,110l-20 0 0 -87 24 0c83,0 146,-23 189,-63 43,-43 70,-106 73,-196l0 0zm-153 0c33,0 63,-13 90,-33 30,-20 50,-43 63,-76l0 -37c0,-66 -13,-120 -43,-159 -27,-44 -63,-64 -107,-64 -46,0 -79,17 -106,50 -26,33 -40,80 -40,133 0,53 14,100 37,133 26,33 60,53 106,53l0 0z"/>
    <path id="_205" class="fil0" d="M13596 9800l0 87 -20 0c-76,0 -139,23 -186,66 -46,47 -73,110 -79,190 43,-47 99,-70 169,-70 70,0 123,23 166,70 40,49 60,113 60,189 0,80 -20,146 -66,193 -44,50 -103,73 -177,73 -76,0 -136,-30 -182,-87 -47,-56 -73,-133 -73,-222l0 -40c0,-143 33,-256 93,-332 63,-77 156,-117 275,-117l20 0 0 0zm-133 356c-33,0 -66,10 -93,30 -29,23 -49,46 -59,80l0 36c0,63 13,116 43,153 30,40 66,60 109,60 44,0 80,-17 107,-50 26,-33 36,-77 36,-130 0,-53 -13,-96 -36,-129 -27,-34 -63,-50 -107,-50l0 0z"/>
    <path id="_206" class="fil0" d="M14208 10242c-20,24 -47,43 -73,60 -30,13 -63,23 -97,23 -46,0 -86,-13 -119,-36 -33,-20 -60,-53 -77,-93 -20,-40 -30,-87 -30,-133 0,-53 10,-103 30,-143 20,-43 50,-77 87,-96 36,-24 79,-34 129,-34 77,0 140,27 183,87 47,56 70,136 70,236l0 30c0,152 -33,265 -93,335 -60,70 -153,107 -273,110l-20 0 0 -87 20 0c83,0 147,-23 190,-63 46,-43 70,-106 73,-196l0 0zm-153 0c33,0 63,-13 93,-33 27,-20 47,-43 60,-76l0 -37c0,-66 -13,-120 -40,-159 -30,-44 -66,-64 -110,-64 -43,0 -79,17 -106,50 -27,33 -40,80 -40,133 0,53 13,100 40,133 23,33 60,53 103,53l0 0z"/>
    <polygon id="_207" class="fil0" points="14776,10588 14676,10588 14676,9920 14474,9996 14474,9903 14759,9797 14776,9797 "/>
    <path id="_208" class="fil0" d="M15564 10252c0,117 -20,203 -60,259 -40,60 -103,87 -190,87 -83,0 -146,-27 -186,-83 -40,-57 -59,-140 -63,-249l0 -133c0,-117 20,-203 60,-260 40,-56 103,-83 189,-83 84,0 147,27 187,80 39,53 59,140 63,253l0 129zm-100 -139c0,-83 -13,-147 -37,-183 -23,-40 -63,-60 -113,-60 -53,0 -89,20 -113,60 -23,36 -33,96 -36,176l0 160c0,86 13,149 36,189 27,40 64,63 113,63 50,0 87,-20 110,-60 27,-36 37,-96 40,-179l0 -166z"/>
    <path id="_209" class="fil0" d="M16208 10588l-518 0 0 -73 272 -303c44,-46 70,-83 87,-113 13,-26 20,-56 20,-86 0,-43 -10,-76 -37,-103 -23,-27 -56,-40 -99,-40 -50,0 -87,13 -117,43 -26,30 -40,67 -40,120l-99 0c0,-73 23,-133 69,-176 47,-47 110,-67 187,-67 73,0 132,17 172,57 44,36 67,90 67,153 0,76 -50,169 -150,276l-209 229 395 0 0 83 0 0z"/>
    <path id="_210" class="fil0" d="M16458 10146l76 0c47,0 83,-13 110,-37 30,-26 43,-59 43,-99 0,-93 -47,-140 -140,-140 -43,0 -76,13 -103,37 -26,26 -40,59 -40,99l-99 0c0,-63 23,-113 69,-156 47,-40 104,-60 173,-60 73,0 133,17 176,57 40,40 64,96 64,166 0,33 -14,66 -34,100 -23,30 -53,56 -93,69 47,17 80,37 103,70 24,30 34,70 34,117 0,69 -24,126 -70,166 -43,43 -103,63 -180,63 -73,0 -133,-20 -179,-60 -47,-40 -70,-93 -70,-160l100 0c0,44 13,77 43,100 27,27 63,40 106,40 50,0 87,-13 113,-40 24,-23 37,-60 37,-106 0,-47 -13,-83 -40,-107 -30,-23 -70,-36 -123,-36l-76 0 0 -83 0 0z"/>
    <path id="_211" class="fil0" d="M17411 10006c0,37 -10,73 -30,103 -20,30 -49,57 -83,73 40,17 73,44 97,77 23,33 36,73 36,116 0,67 -23,123 -70,163 -46,40 -106,60 -179,60 -76,0 -136,-20 -183,-60 -46,-40 -70,-96 -70,-163 0,-43 14,-83 37,-116 23,-33 53,-60 96,-77 -36,-20 -63,-43 -83,-73 -20,-30 -30,-66 -30,-103 0,-66 20,-119 64,-159 43,-40 99,-57 169,-57 66,0 123,17 166,57 43,40 63,93 63,159zm-79 366c0,-43 -14,-80 -44,-106 -26,-30 -63,-44 -109,-44 -43,0 -80,14 -107,44 -30,26 -43,63 -43,106 0,46 13,80 40,106 27,27 63,40 113,40 47,0 83,-13 110,-40 26,-26 40,-60 40,-106zm-150 -502c-40,0 -73,13 -96,37 -24,26 -37,59 -37,99 0,40 10,73 37,97 23,26 56,40 96,40 40,0 70,-14 93,-40 27,-24 37,-57 37,-97 0,-40 -10,-73 -37,-96 -23,-27 -56,-40 -93,-40z"/>
    <path id="_212" class="fil0" d="M17604 10192l40 -392 402 0 0 93 -319 0 -23 213c40,-20 83,-33 133,-33 69,0 126,23 169,73 43,46 63,110 63,189 0,83 -20,147 -66,193 -43,47 -103,70 -183,70 -70,0 -126,-20 -169,-57 -44,-40 -70,-93 -77,-159l97 0c6,43 19,76 46,99 27,24 60,37 103,37 47,0 83,-17 110,-50 26,-30 40,-73 40,-129 0,-54 -14,-97 -44,-127 -30,-33 -66,-50 -113,-50 -43,0 -79,10 -103,30l-26 20 -80 -20 0 0z"/>
   </g>
   <polygon class="fil1" points="244,2927 181,2993 181,3198 81,3198 81,2367 181,2367 181,2870 235,2806 417,2613 539,2613 311,2857 565,3198 448,3198 "/>
   <path id="1" class="fil1" d="M746 2613l0 652c0,113 -51,169 -153,169 -22,0 -43,-3 -62,-10l0 -80c12,3 27,5 46,5 22,0 39,-6 51,-18 12,-12 18,-33 18,-63l0 -655 100 0zm-111 -155c0,-16 5,-30 15,-41 10,-12 25,-18 44,-18 19,0 34,6 44,17 10,11 15,25 15,42 0,16 -5,29 -15,40 -10,11 -25,17 -44,17 -20,0 -34,-6 -44,-17 -10,-11 -15,-24 -15,-40z"/>
   <path id="2" class="fil1" d="M1248 3043c0,-27 -10,-48 -31,-63 -20,-15 -56,-28 -106,-39 -51,-10 -91,-24 -121,-39 -30,-15 -52,-33 -66,-54 -14,-21 -21,-46 -21,-74 0,-48 20,-89 60,-122 41,-33 93,-50 156,-50 66,0 120,17 161,51 42,35 62,79 62,132l-100 0c0,-28 -12,-51 -35,-71 -23,-20 -53,-30 -88,-30 -36,0 -65,8 -85,24 -21,16 -31,36 -31,62 0,24 9,42 28,55 20,12 54,24 104,35 50,11 90,24 121,40 31,15 54,34 69,56 15,22 23,48 23,80 0,52 -21,94 -63,126 -42,31 -96,47 -163,47 -47,0 -88,-8 -124,-25 -36,-16 -64,-40 -85,-69 -20,-30 -30,-62 -30,-97l100 0c2,34 15,60 40,80 25,19 58,29 99,29 38,0 69,-7 91,-23 23,-15 35,-36 35,-61z"/>
   <path id="3" class="fil1" d="M1712 3127c36,0 67,-11 94,-32 27,-22 42,-49 44,-81l95 0c-2,33 -13,65 -35,96 -21,30 -49,54 -85,72 -35,18 -73,27 -113,27 -79,0 -143,-27 -190,-80 -47,-53 -70,-126 -70,-218l0 -17c0,-57 10,-107 31,-152 21,-44 51,-79 90,-103 39,-25 85,-37 139,-37 66,0 120,20 164,59 43,39 66,90 69,153l-95 0c-2,-38 -17,-69 -43,-93 -25,-25 -57,-37 -95,-37 -51,0 -90,18 -118,55 -28,37 -42,89 -42,159l0 19c0,67 14,119 42,155 27,37 67,55 118,55z"/>
   <path id="4" class="fil1" d="M2301 3209c-79,0 -144,-26 -194,-78 -50,-52 -74,-122 -74,-209l0 -19c0,-58 11,-109 33,-155 22,-46 53,-81 93,-107 40,-26 83,-39 129,-39 76,0 135,25 178,75 42,50 63,122 63,216l0 41 -396 0c1,58 18,105 50,140 32,35 73,53 123,53 36,0 65,-7 90,-21 25,-15 46,-34 64,-58l62 48c-50,75 -123,113 -221,113zm-13 -525c-40,0 -74,15 -101,44 -28,30 -45,71 -51,124l293 0 0 -7c-3,-51 -17,-91 -41,-119 -25,-28 -58,-42 -100,-42z"/>
   <path id="5" class="fil1" d="M3006 3198c-6,-11 -10,-32 -14,-61 -47,48 -102,72 -167,72 -57,0 -105,-16 -142,-49 -37,-33 -55,-74 -55,-124 0,-61 23,-108 69,-142 47,-34 112,-50 196,-50l97 0 0 -46c0,-35 -10,-63 -31,-84 -21,-21 -52,-31 -92,-31 -36,0 -66,9 -90,27 -25,18 -37,40 -37,65l-100 0c0,-29 10,-57 31,-84 21,-28 49,-49 84,-65 36,-16 75,-24 117,-24 68,0 121,17 159,51 38,33 58,80 59,139l0 269c0,54 7,97 21,128l0 9 -105 0zm-166 -74c31,0 61,-8 89,-25 28,-16 49,-37 61,-63l0 -122 -78 0c-123,0 -184,37 -184,109 0,32 10,56 31,74 21,18 48,27 81,27z"/>
   <path id="6" class="fil1" d="M3743 2912c0,90 -21,161 -62,216 -41,54 -96,81 -166,81 -73,0 -131,-26 -171,-78l-5 67 -92 0 0 -831 100 0 0 310c41,-50 96,-75 167,-75 71,0 127,27 168,81 40,53 61,127 61,220l0 9zm-100 -11c0,-68 -14,-121 -40,-158 -26,-37 -64,-56 -113,-56 -66,0 -114,31 -143,92l0 253c31,61 79,92 144,92 48,0 85,-19 112,-56 26,-37 40,-93 40,-167z"/>
   <path id="7" class="fil1" d="M3969 2684c44,-55 102,-82 173,-82 123,0 186,70 187,209l0 387 -100 0 0 -387c0,-42 -10,-73 -29,-93 -19,-20 -48,-31 -88,-31 -33,0 -61,9 -86,26 -24,18 -44,40 -57,68l0 417 -100 0 0 -831 100 0 0 317z"/>
   <path id="8" class="fil1" d="M4588 3198l-100 0 0 -585 100 0 0 585zm-109 -740c0,-17 5,-31 15,-42 10,-11 25,-17 44,-17 20,0 35,6 45,17 10,11 15,25 15,42 0,16 -5,29 -15,40 -10,11 -25,17 -45,17 -19,0 -34,-6 -44,-17 -10,-11 -15,-24 -15,-40z"/>
   <path id="9" class="fil1" d="M4939 3051l136 -438 107 0 -235 675c-37,97 -94,146 -174,146l-19 -2 -37 -7 0 -81 27 2c34,0 61,-6 79,-20 19,-14 35,-39 47,-75l22 -59 -208 -579 109 0 146 438z"/>
   <path id="10" class="fil1" d="M5625 3198c-6,-11 -11,-32 -14,-61 -47,48 -102,72 -167,72 -58,0 -105,-16 -142,-49 -37,-33 -55,-74 -55,-124 0,-61 23,-108 69,-142 47,-34 112,-50 196,-50l97 0 0 -46c0,-35 -10,-63 -31,-84 -21,-21 -52,-31 -93,-31 -35,0 -65,9 -90,27 -24,18 -36,40 -36,65l-100 0c0,-29 10,-57 31,-84 21,-28 49,-49 84,-65 36,-16 75,-24 117,-24 68,0 120,17 159,51 38,33 58,80 59,139l0 269c0,54 7,97 21,128l0 9 -105 0zm-166 -74c31,0 61,-8 89,-25 28,-16 48,-37 61,-63l0 -122 -78 0c-123,0 -184,37 -184,109 0,32 10,56 31,74 21,18 48,27 81,27z"/>
   <path id="11" class="fil1" d="M5961 2613l3 73c45,-56 103,-84 175,-84 124,0 186,70 187,209l0 387 -100 0 0 -387c0,-42 -10,-73 -29,-93 -18,-20 -48,-31 -88,-31 -32,0 -61,9 -86,26 -24,18 -43,40 -57,68l0 417 -100 0 0 -585 95 0z"/>
   <path id="12" class="fil1" d="M6613 2471l0 142 109 0 0 78 -109 0 0 362c0,24 5,41 15,53 9,12 26,18 50,18 11,0 27,-2 47,-7l0 81c-26,7 -52,11 -77,11 -44,0 -78,-13 -101,-41 -23,-26 -34,-65 -34,-115l0 -362 -106 0 0 -78 106 0 0 -142 100 0z"/>
   <path id="13" class="fil1" d="M7122 2702c-15,-2 -32,-4 -49,-4 -66,0 -111,28 -134,84l0 416 -100 0 0 -585 97 0 2 68c33,-53 79,-79 139,-79 20,0 35,3 45,8l0 92z"/>
   <path id="14" class="fil1" d="M7323 3198l-100 0 0 -585 100 0 0 585zm-108 -740c0,-17 5,-31 14,-42 10,-11 25,-17 44,-17 20,0 35,6 45,17 10,11 15,25 15,42 0,16 -5,29 -15,40 -10,11 -25,17 -45,17 -19,0 -34,-6 -44,-17 -9,-11 -14,-24 -14,-40z"/>
   <polygon id="15" class="fil1" points="7646,2927 7583,2993 7583,3198 7483,3198 7483,2367 7583,2367 7583,2870 7637,2806 7819,2613 7941,2613 7713,2857 7967,3198 7850,3198 "/>
   <path id="16" class="fil1" d="M8153 3198l-100 0 0 -585 100 0 0 585zm-108 -740c0,-17 5,-31 14,-42 10,-11 25,-17 45,-17 19,0 34,6 44,17 10,11 15,25 15,42 0,16 -5,29 -15,40 -10,11 -25,17 -44,17 -20,0 -35,-6 -45,-17 -9,-11 -14,-24 -14,-40z"/>
   <path id="17" class="fil1" d="M9177 2927c-4,87 -26,156 -65,206 -39,51 -91,76 -156,76 -68,0 -111,-30 -130,-91 -19,31 -42,54 -67,69 -25,15 -51,22 -77,22 -52,0 -90,-21 -117,-63 -26,-42 -36,-99 -29,-173 5,-60 19,-113 41,-160 22,-47 50,-83 84,-110 35,-27 71,-40 109,-40 29,0 55,4 78,12 23,7 49,23 78,45l-28 300c-7,83 16,125 69,125 41,0 74,-20 99,-61 25,-40 39,-93 41,-158 7,-141 -19,-248 -78,-322 -59,-74 -149,-110 -269,-110 -72,0 -137,17 -193,53 -56,36 -101,88 -133,156 -32,67 -51,146 -55,234 -4,90 7,167 33,233 26,66 65,116 118,151 54,35 118,52 193,52 33,0 65,-4 98,-12 32,-8 60,-18 81,-31l20 63c-22,15 -52,27 -89,36 -37,9 -74,14 -112,14 -90,0 -168,-21 -233,-61 -64,-41 -113,-99 -145,-175 -32,-77 -46,-166 -42,-268 4,-99 26,-188 66,-267 40,-79 95,-140 163,-184 69,-43 146,-64 232,-64 90,0 167,20 231,60 64,41 112,99 143,175 32,76 45,165 41,268zm-555 46c-5,51 0,90 15,118 14,27 37,41 69,41 22,0 42,-10 62,-28 20,-18 37,-45 50,-79l0 -5 25 -272c-20,-10 -41,-15 -64,-15 -43,0 -78,21 -105,64 -28,43 -45,102 -52,176z"/>
   <path id="18" class="fil1" d="M9648 3043c0,-27 -10,-48 -30,-63 -21,-15 -56,-28 -107,-39 -50,-10 -91,-24 -120,-39 -30,-15 -52,-33 -66,-54 -15,-21 -22,-46 -22,-74 0,-48 21,-89 61,-122 41,-33 93,-50 156,-50 66,0 120,17 161,51 41,35 62,79 62,132l-101 0c0,-28 -11,-51 -34,-71 -24,-20 -53,-30 -88,-30 -37,0 -65,8 -86,24 -20,16 -31,36 -31,62 0,24 10,42 29,55 19,12 54,24 104,35 50,11 90,24 121,40 31,15 54,34 69,56 15,22 22,48 22,80 0,52 -20,94 -62,126 -42,31 -96,47 -163,47 -47,0 -88,-8 -125,-25 -36,-16 -64,-40 -84,-69 -20,-30 -31,-62 -31,-97l100 0c2,34 16,60 41,80 25,19 58,29 99,29 38,0 68,-7 91,-23 23,-15 34,-36 34,-61z"/>
   <path id="19" class="fil1" d="M9852 2900c0,-57 11,-109 34,-154 22,-46 54,-82 94,-107 40,-25 86,-37 137,-37 80,0 145,28 194,83 49,55 74,128 74,220l0 7c0,57 -11,108 -33,153 -22,46 -53,81 -94,106 -40,26 -87,38 -139,38 -80,0 -144,-27 -193,-83 -49,-55 -74,-128 -74,-219l0 -7zm101 12c0,65 15,117 45,156 30,40 70,59 121,59 50,0 91,-20 121,-60 30,-40 45,-95 45,-167 0,-64 -16,-116 -46,-156 -31,-40 -71,-60 -122,-60 -49,0 -89,20 -119,59 -30,39 -45,96 -45,169z"/>
   <path id="20" class="fil1" d="M10604 2613l3 65c43,-51 101,-76 174,-76 81,0 137,31 167,94 19,-28 44,-51 76,-68 31,-17 68,-26 110,-26 129,0 194,68 196,204l0 392 -100 0 0 -386c0,-42 -10,-73 -29,-94 -19,-20 -51,-31 -96,-31 -37,0 -68,11 -93,34 -24,22 -38,51 -42,89l0 388 -101 0 0 -383c0,-85 -42,-128 -125,-128 -65,0 -110,28 -134,84l0 427 -100 0 0 -585 94 0z"/>
   <path id="21" class="fil1" d="M11842 3198c-5,-11 -10,-32 -14,-61 -46,48 -102,72 -166,72 -58,0 -105,-16 -142,-49 -37,-33 -55,-74 -55,-124 0,-61 23,-108 69,-142 46,-34 111,-50 195,-50l98 0 0 -46c0,-35 -11,-63 -31,-84 -22,-21 -52,-31 -93,-31 -36,0 -66,9 -90,27 -24,18 -36,40 -36,65l-101 0c0,-29 11,-57 31,-84 21,-28 49,-49 85,-65 35,-16 74,-24 117,-24 67,0 120,17 158,51 39,33 58,80 60,139l0 269c0,54 7,97 20,128l0 9 -105 0zm-166 -74c32,0 62,-8 90,-25 28,-16 48,-37 61,-63l0 -122 -79 0c-122,0 -183,37 -183,109 0,32 10,56 31,74 21,18 48,27 80,27z"/>
   <path id="22" class="fil1" d="M12193 3198l-100 0 0 -585 100 0 0 585zm-109 -740c0,-17 5,-31 15,-42 10,-11 25,-17 44,-17 20,0 35,6 45,17 10,11 15,25 15,42 0,16 -5,29 -15,40 -10,11 -25,17 -45,17 -19,0 -34,-6 -44,-17 -10,-11 -15,-24 -15,-40z"/>
   <path id="23" class="fil1" d="M12544 3051l136 -438 107 0 -235 675c-37,97 -94,146 -174,146l-19 -2 -37 -7 0 -81 27 2c34,0 61,-6 79,-20 19,-14 35,-39 47,-75l22 -59 -208 -579 109 0 146 438z"/>
   <path id="24" class="fil1" d="M13230 3198c-6,-11 -11,-32 -14,-61 -47,48 -102,72 -167,72 -58,0 -105,-16 -142,-49 -37,-33 -55,-74 -55,-124 0,-61 23,-108 69,-142 47,-34 112,-50 196,-50l97 0 0 -46c0,-35 -10,-63 -31,-84 -21,-21 -52,-31 -93,-31 -35,0 -65,9 -90,27 -24,18 -36,40 -36,65l-100 0c0,-29 10,-57 31,-84 21,-28 49,-49 84,-65 36,-16 75,-24 117,-24 68,0 120,17 159,51 38,33 58,80 59,139l0 269c0,54 7,97 21,128l0 9 -105 0zm-166 -74c31,0 61,-8 89,-25 28,-16 48,-37 61,-63l0 -122 -78 0c-123,0 -184,37 -184,109 0,32 10,56 31,74 21,18 48,27 81,27z"/>
   <path id="25" class="fil1" d="M13473 3145c0,-17 5,-31 16,-43 10,-11 25,-17 46,-17 20,0 36,6 47,17 10,12 16,26 16,43 0,17 -6,31 -16,42 -11,11 -27,17 -47,17 -21,0 -36,-6 -46,-17 -11,-11 -16,-25 -16,-42z"/>
   <path id="26" class="fil1" d="M14005 3209c-79,0 -143,-26 -193,-78 -50,-52 -75,-122 -75,-209l0 -19c0,-58 11,-109 33,-155 23,-46 54,-81 93,-107 40,-26 84,-39 130,-39 76,0 135,25 177,75 43,50 64,122 64,216l0 41 -397 0c2,58 19,105 51,140 32,35 73,53 123,53 35,0 65,-7 90,-21 24,-15 46,-34 64,-58l61 48c-49,75 -123,113 -221,113zm-12 -525c-40,0 -74,15 -102,44 -27,30 -44,71 -50,124l293 0 0 -7c-3,-51 -17,-91 -41,-119 -25,-28 -58,-42 -100,-42z"/>
   <path id="27" class="fil1" d="M14325 2901c0,-90 21,-162 64,-217 42,-55 98,-82 167,-82 69,0 123,24 163,70l0 -305 100 0 0 831 -92 0 -5 -63c-40,50 -96,74 -167,74 -68,0 -123,-28 -166,-83 -43,-56 -64,-128 -64,-218l0 -7zm100 11c0,66 14,118 41,156 28,37 66,56 114,56 63,0 110,-29 139,-85l0 -269c-30,-55 -76,-83 -138,-83 -49,0 -87,19 -115,57 -27,38 -41,94 -41,168z"/>
   <path id="28" class="fil1" d="M15335 3140c-39,46 -96,69 -171,69 -63,0 -110,-18 -143,-54 -32,-37 -49,-90 -49,-161l0 -381 100 0 0 378c0,88 36,133 108,133 76,0 127,-29 153,-85l0 -426 100 0 0 585 -96 0 -2 -58z"/>
   <g>
    <path class="fil2" d="M0 7015l0 -788 222 0c69,0 129,15 182,46 53,30 93,73 122,129 29,56 43,120 44,192l0 51c0,74 -15,139 -44,195 -28,56 -69,99 -122,129 -53,30 -115,45 -186,46l-218 0zm104 -702l0 616 109 0c80,0 142,-24 187,-74 45,-50 67,-121 67,-213l0 -46c0,-89 -21,-158 -63,-208 -42,-50 -102,-75 -179,-75l-121 0z"/>
    <path id="1" class="fil2" d="M811 6500c44,-54 102,-81 173,-81 124,0 186,70 187,209l0 387 -100 0 0 -387c0,-42 -10,-73 -29,-94 -19,-20 -48,-30 -88,-30 -33,0 -61,9 -86,26 -24,17 -43,40 -57,68l0 417 -100 0 0 -831 100 0 0 316z"/>
    <path id="2" class="fil2" d="M1682 7015c-6,-12 -10,-32 -14,-62 -46,49 -102,73 -166,73 -58,0 -105,-16 -142,-49 -37,-33 -56,-74 -56,-124 0,-61 23,-108 70,-142 46,-34 111,-51 195,-51l97 0 0 -46c0,-35 -10,-62 -31,-83 -21,-21 -52,-31 -92,-31 -36,0 -66,9 -90,27 -24,18 -36,40 -36,65l-101 0c0,-29 10,-57 31,-85 21,-27 49,-48 85,-64 35,-16 74,-24 117,-24 67,0 120,17 158,50 38,34 58,81 59,140l0 269c0,54 8,96 21,128l0 9 -105 0zm-166 -74c32,0 61,-9 89,-25 29,-16 49,-38 61,-64l0 -121 -78 0c-122,0 -184,36 -184,109 0,31 11,56 31,74 22,18 48,27 81,27z"/>
    <path id="3" class="fil2" d="M2206 6519c-15,-2 -32,-4 -49,-4 -66,0 -110,28 -134,84l0 416 -100 0 0 -585 98 0 1 67c33,-52 80,-78 140,-78 19,0 34,2 44,7l0 93z"/>
    <path id="4" class="fil2" d="M2392 6430l3 65c43,-51 100,-76 173,-76 82,0 138,31 167,94 20,-28 45,-51 77,-68 31,-17 67,-26 110,-26 128,0 194,68 196,204l0 392 -100 0 0 -386c0,-42 -10,-73 -29,-94 -19,-21 -51,-31 -96,-31 -37,0 -68,11 -93,33 -24,23 -38,52 -42,90l0 388 -101 0 0 -383c0,-85 -42,-128 -125,-128 -65,0 -110,28 -135,84l0 427 -100 0 0 -585 95 0z"/>
    <path id="5" class="fil2" d="M3378 7015l-100 0 0 -585 100 0 0 585zm-108 -741c0,-16 5,-30 14,-41 10,-11 25,-17 45,-17 19,0 34,6 44,17 10,11 15,25 15,41 0,17 -5,30 -15,41 -10,11 -25,16 -44,16 -20,0 -35,-5 -45,-16 -9,-11 -14,-24 -14,-41z"/>
    <path id="6" class="fil2" d="M3879 6860c0,-27 -10,-48 -31,-63 -20,-15 -56,-28 -106,-39 -51,-11 -91,-24 -121,-39 -30,-15 -52,-33 -66,-54 -14,-21 -21,-46 -21,-75 0,-48 20,-88 60,-121 41,-34 93,-50 156,-50 66,0 120,17 161,51 42,35 62,78 62,132l-100 0c0,-28 -12,-52 -35,-71 -23,-20 -53,-30 -88,-30 -36,0 -65,8 -85,24 -21,16 -31,36 -31,62 0,24 9,42 28,55 20,12 54,24 104,35 50,11 90,24 121,40 31,15 54,34 69,56 15,22 23,48 23,80 0,52 -21,94 -63,125 -42,32 -96,48 -163,48 -47,0 -88,-8 -124,-25 -36,-17 -64,-40 -85,-69 -20,-30 -30,-63 -30,-97l100 0c1,33 15,60 40,80 25,19 58,29 99,29 38,0 69,-8 91,-23 23,-15 35,-36 35,-61z"/>
    <path id="7" class="fil2" d="M4209 6500c44,-54 102,-81 173,-81 124,0 186,70 187,209l0 387 -100 0 0 -387c0,-42 -10,-73 -29,-94 -19,-20 -48,-30 -88,-30 -32,0 -61,9 -86,26 -24,17 -43,40 -57,68l0 417 -100 0 0 -831 100 0 0 316z"/>
    <path id="8" class="fil2" d="M5009 7015l0 -788 257 0c86,0 150,18 193,53 43,36 65,88 65,158 0,36 -11,69 -32,97 -20,29 -49,51 -85,66 43,12 76,35 101,68 25,33 37,73 37,119 0,71 -23,126 -69,166 -46,41 -110,61 -194,61l-273 0zm104 -367l0 281 171 0c49,0 87,-12 115,-37 27,-25 42,-59 42,-103 0,-94 -52,-141 -155,-141l-173 0zm0 -85l157 0c45,0 81,-12 109,-34 27,-23 40,-54 40,-93 0,-43 -12,-74 -37,-94 -26,-20 -64,-29 -116,-29l-153 0 0 250z"/>
    <path id="9" class="fil2" d="M5783 6500c44,-54 102,-81 173,-81 124,0 186,70 187,209l0 387 -100 0 0 -387c0,-42 -10,-73 -29,-94 -19,-20 -48,-30 -88,-30 -33,0 -61,9 -86,26 -24,17 -43,40 -57,68l0 417 -100 0 0 -831 100 0 0 316z"/>
    <path id="10" class="fil2" d="M6654 7015c-6,-12 -10,-32 -14,-62 -46,49 -102,73 -166,73 -58,0 -105,-16 -142,-49 -37,-33 -56,-74 -56,-124 0,-61 23,-108 70,-142 46,-34 111,-51 195,-51l97 0 0 -46c0,-35 -10,-62 -31,-83 -21,-21 -52,-31 -92,-31 -36,0 -66,9 -90,27 -24,18 -36,40 -36,65l-101 0c0,-29 10,-57 31,-85 21,-27 49,-48 85,-64 35,-16 74,-24 117,-24 67,0 120,17 158,50 38,34 58,81 59,140l0 269c0,54 7,96 21,128l0 9 -105 0zm-166 -74c32,0 61,-9 89,-25 29,-16 49,-38 61,-64l0 -121 -78 0c-122,0 -184,36 -184,109 0,31 11,56 31,74 22,18 48,27 81,27z"/>
    <path id="11" class="fil2" d="M7031 6288l0 142 110 0 0 77 -110 0 0 363c0,24 5,41 15,53 10,12 26,18 50,18 11,0 27,-3 47,-7l0 81c-26,7 -52,11 -76,11 -45,0 -79,-14 -102,-41 -22,-27 -34,-65 -34,-115l0 -363 -106 0 0 -77 106 0 0 -142 100 0z"/>
    <path id="12" class="fil2" d="M7393 6288l0 142 109 0 0 77 -109 0 0 363c0,24 5,41 15,53 9,12 26,18 49,18 12,0 28,-3 48,-7l0 81c-26,7 -52,11 -77,11 -44,0 -78,-14 -101,-41 -23,-27 -34,-65 -34,-115l0 -363 -107 0 0 -77 107 0 0 -142 100 0z"/>
    <path id="13" class="fil2" d="M7616 6962c0,-17 5,-31 15,-43 10,-11 26,-17 46,-17 21,0 37,6 47,17 11,12 16,26 16,43 0,17 -5,30 -16,42 -10,11 -26,16 -47,16 -20,0 -36,-5 -46,-16 -10,-12 -15,-25 -15,-42zm1 -477c0,-18 5,-32 15,-43 10,-12 26,-18 46,-18 21,0 37,6 47,18 11,11 16,25 16,43 0,16 -5,30 -16,41 -10,11 -26,17 -47,17 -20,0 -36,-6 -46,-17 -10,-11 -15,-25 -15,-41z"/>
    <path id="14" class="fil2" d="M8535 6668c-21,25 -46,45 -75,60 -29,16 -61,23 -96,23 -45,0 -85,-11 -118,-33 -34,-23 -60,-54 -79,-95 -18,-40 -27,-85 -27,-134 0,-53 10,-100 30,-142 20,-43 48,-75 85,-97 37,-23 80,-34 129,-34 78,0 139,29 184,87 45,59 67,138 67,239l0 29c0,153 -30,265 -91,335 -60,71 -152,107 -274,109l-19 0 0 -86 21 0c82,-1 146,-22 190,-64 44,-41 69,-107 73,-197zm-154 0c33,0 64,-10 92,-31 28,-20 49,-45 62,-75l0 -40c0,-65 -14,-118 -43,-159 -28,-41 -64,-62 -108,-62 -44,0 -79,17 -106,51 -27,33 -40,77 -40,132 0,54 13,98 39,132 26,35 60,52 104,52z"/>
    <polygon id="15" class="fil2" points="9102,7015 9001,7015 9001,6348 8800,6422 8800,6331 9086,6224 9102,6224 "/>
    <path id="16" class="fil2" d="M9788 6227l0 86 -19 0c-78,1 -140,24 -186,69 -46,44 -73,107 -80,188 42,-48 98,-71 170,-71 68,0 123,24 164,72 41,48 62,111 62,187 0,81 -23,146 -67,195 -44,48 -103,73 -177,73 -76,0 -137,-29 -184,-87 -47,-58 -70,-132 -70,-223l0 -39c0,-145 31,-256 93,-332 62,-77 154,-116 276,-118l18 0zm-132 357c-34,0 -66,10 -94,31 -29,20 -49,46 -60,76l0 37c0,64 14,116 43,156 30,39 66,59 110,59 45,0 80,-17 106,-50 26,-33 39,-76 39,-129 0,-54 -14,-97 -40,-130 -26,-33 -60,-50 -104,-50z"/>
    <polygon id="17" class="fil2" points="10525,6283 10199,7015 10094,7015 10419,6309 9993,6309 9993,6227 10525,6227 "/>
    <path id="18" class="fil2" d="M11061 6750l109 0 0 82 -109 0 0 183 -100 0 0 -183 -359 0 0 -59 353 -546 106 0 0 523zm-345 0l245 0 0 -386 -12 22 -233 364z"/>
    <path id="19" class="fil2" d="M11653 6227l0 86 -18 0c-78,1 -140,24 -186,69 -46,44 -73,107 -80,188 41,-48 98,-71 170,-71 68,0 123,24 164,72 41,48 61,111 61,187 0,81 -22,146 -66,195 -44,48 -103,73 -178,73 -75,0 -136,-29 -183,-87 -47,-58 -70,-132 -70,-223l0 -39c0,-145 31,-256 92,-332 62,-77 154,-116 277,-118l17 0zm-131 357c-34,0 -66,10 -95,31 -28,20 -49,46 -60,76l0 37c0,64 15,116 44,156 29,39 66,59 109,59 45,0 81,-17 107,-50 25,-33 38,-76 38,-129 0,-54 -13,-97 -39,-130 -26,-33 -61,-50 -104,-50z"/>
    <polygon id="20" class="fil2" points="12212,7015 12111,7015 12111,6348 11909,6422 11909,6331 12196,6224 12212,6224 "/>
    <polygon id="21" class="fil2" points="13013,6283 12687,7015 12582,7015 12907,6309 12481,6309 12481,6227 13013,6227 "/>
    <polygon id="22" class="fil2" points="13635,6283 13309,7015 13204,7015 13529,6309 13103,6309 13103,6227 13635,6227 "/>
    <path id="23" class="fil2" d="M14132 6668c-21,25 -46,45 -75,60 -29,16 -61,23 -95,23 -46,0 -85,-11 -119,-33 -34,-23 -60,-54 -78,-95 -19,-40 -28,-85 -28,-134 0,-53 10,-100 30,-142 20,-43 49,-75 85,-97 37,-23 80,-34 129,-34 78,0 139,29 184,87 45,59 68,138 68,239l0 29c0,153 -31,265 -91,335 -61,71 -152,107 -274,109l-20 0 0 -86 21 0c83,-1 146,-22 190,-64 45,-41 69,-107 73,-197zm-154 0c33,0 64,-10 93,-31 28,-20 48,-45 62,-75l0 -40c0,-65 -15,-118 -43,-159 -29,-41 -65,-62 -108,-62 -44,0 -80,17 -106,51 -27,33 -40,77 -40,132 0,54 12,98 38,132 26,35 61,52 104,52z"/>
    <path id="_136" class="fil0" d="M224 5396l0 280 -163 0 0 -788 310 0c56,0 109,10 152,30 47,23 80,53 107,93 23,40 36,86 36,136 0,77 -26,140 -79,183 -54,46 -127,66 -220,66l-143 0 0 0zm0 -129l147 0c39,0 73,-10 96,-33 23,-20 33,-47 33,-87 0,-36 -10,-70 -33,-93 -23,-23 -53,-36 -93,-36l-150 0 0 249 0 0z"/>
    <path id="_137" class="fil0" d="M1118 5616c-40,46 -93,70 -163,70 -63,0 -109,-20 -143,-54 -33,-36 -49,-89 -49,-159l0 -382 156 0 0 375c0,63 26,93 83,93 53,0 90,-20 110,-56l0 -412 156 0 0 585 -146 0 -4 -60 0 0z"/>
    <path id="_138" class="fil0" d="M1912 5386c0,94 -19,167 -59,220 -40,53 -97,80 -167,80 -63,0 -116,-24 -152,-74l-7 64 -143 0 0 -831 160 0 0 296c33,-40 83,-64 139,-64 73,0 130,27 170,80 40,53 59,126 59,223l0 6 0 0zm-156 -10c0,-59 -10,-103 -26,-129 -20,-30 -47,-43 -87,-43 -50,0 -83,20 -99,63l0 229c16,43 53,63 103,63 49,0 83,-26 99,-76 7,-23 10,-60 10,-107z"/>
    <polygon id="_139" class="fil0" points="2175,5676 2019,5676 2019,4845 2175,4845 "/>
    <path id="_140" class="fil0" d="M2467 5676l-156 0 0 -585 156 0 0 585zm-166 -738c0,-23 10,-43 23,-57 17,-16 37,-23 67,-23 27,0 46,7 63,23 17,14 23,34 23,57 0,23 -6,43 -23,60 -17,13 -40,23 -63,23 -27,0 -50,-10 -67,-23 -13,-17 -23,-37 -23,-60z"/>
    <path id="_141" class="fil0" d="M2840 5559c29,0 53,-6 69,-23 20,-17 27,-37 30,-63l146 0c0,40 -13,76 -33,110 -20,33 -50,56 -86,76 -37,17 -80,27 -123,27 -83,0 -150,-27 -199,-80 -47,-53 -70,-126 -70,-220l0 -13c0,-90 23,-159 70,-213 49,-56 112,-83 199,-83 73,0 129,24 176,64 43,43 66,96 66,166l-146 0c-3,-30 -10,-53 -30,-73 -16,-20 -40,-30 -69,-30 -37,0 -64,13 -84,40 -19,26 -26,69 -26,129l0 17c0,60 7,103 26,129 17,27 47,40 84,40l0 0z"/>
    <path id="_142" class="fil0" d="M3753 5386l-129 0 0 290 -163 0 0 -788 292 0c93,0 163,20 216,60 50,43 74,100 74,176 0,53 -10,100 -34,136 -23,37 -60,63 -106,87l169 319 0 10 -172 0 -147 -290 0 0zm-129 -132l129 0c40,0 74,-10 97,-30 20,-20 33,-50 33,-87 0,-36 -13,-66 -33,-86 -20,-23 -53,-33 -97,-33l-129 0 0 236 0 0z"/>
    <path id="_143" class="fil0" d="M4428 5686c-86,0 -156,-27 -209,-80 -57,-53 -83,-123 -83,-210l0 -16c0,-57 13,-110 33,-156 23,-47 56,-83 99,-107 40,-26 87,-40 140,-40 83,0 143,27 189,77 47,50 70,123 70,216l0 63 -372 0c3,37 20,70 47,93 23,20 56,33 96,33 60,0 106,-23 140,-66l76 86c-23,33 -53,60 -93,80 -40,17 -86,27 -133,27l0 0zm-20 -482c-30,0 -56,10 -73,33 -20,20 -33,50 -40,90l219 0 0 -14c0,-33 -10,-59 -29,-79 -17,-20 -44,-30 -77,-30l0 0z"/>
    <polygon id="_144" class="fil0" points="4920,5676 4764,5676 4764,4845 4920,4845 "/>
    <path id="_145" class="fil0" d="M5388 5676c-6,-17 -13,-34 -16,-54 -37,44 -87,64 -146,64 -57,0 -107,-17 -143,-50 -37,-34 -57,-77 -57,-127 0,-63 23,-109 70,-142 46,-34 113,-50 199,-50l70 0 0 -34c0,-26 -7,-49 -20,-63 -13,-16 -36,-26 -66,-26 -27,0 -47,6 -60,20 -17,13 -23,30 -23,50l-157 0c0,-34 10,-64 30,-94 24,-29 54,-49 90,-66 40,-17 80,-27 130,-27 73,0 129,20 169,57 43,36 67,86 67,153l0 252c0,57 6,97 23,127l0 10 -160 0 0 0zm-129 -110c23,0 46,-7 63,-17 20,-10 36,-23 43,-40l0 -99 -56 0c-80,0 -120,26 -127,79l0 10c0,20 7,34 20,47 14,13 34,20 57,20l0 0z"/>
    <path id="_146" class="fil0" d="M5830 4944l0 147 100 0 0 113 -100 0 0 292c0,23 4,37 14,47 6,10 23,13 46,13 17,0 33,0 47,-3l0 119c-30,10 -63,14 -93,14 -110,0 -167,-57 -170,-167l0 -315 -86 0 0 -113 86 0 0 -147 156 0z"/>
    <path id="_147" class="fil0" d="M6183 5676l-157 0 0 -585 157 0 0 585zm-167 -738c0,-23 7,-43 24,-57 16,-16 36,-23 63,-23 26,0 50,7 66,23 14,14 24,34 24,57 0,23 -10,43 -24,60 -16,13 -40,23 -66,23 -27,0 -47,-10 -63,-23 -17,-17 -24,-37 -24,-60z"/>
    <path id="_148" class="fil0" d="M6286 5376c0,-59 13,-109 33,-156 23,-43 56,-79 100,-106 39,-23 89,-37 146,-37 76,0 143,27 192,74 50,49 77,113 84,196l0 39c0,90 -24,163 -74,216 -53,57 -119,84 -202,84 -87,0 -153,-27 -203,-84 -50,-53 -76,-126 -76,-219l0 -7zm156 10c0,57 13,100 33,130 20,27 50,43 90,43 36,0 66,-13 89,-43 20,-30 30,-76 30,-140 0,-56 -10,-96 -30,-126 -23,-30 -53,-46 -89,-46 -40,0 -70,16 -90,46 -20,30 -33,77 -33,136z"/>
    <path id="_149" class="fil0" d="M7083 5091l3 66c44,-53 97,-80 170,-80 60,0 106,20 136,57 30,36 47,90 47,163l0 379 -156 0 0 -376c0,-33 -7,-56 -20,-73 -17,-13 -40,-23 -74,-23 -43,0 -76,20 -99,56l0 416 -156 0 0 -585 149 0 0 0z"/>
    <path id="_150" class="fil0" d="M7874 5513c0,-20 -10,-33 -27,-47 -19,-10 -49,-20 -93,-26 -139,-30 -209,-90 -209,-180 0,-53 23,-96 67,-129 43,-37 99,-54 169,-54 73,0 133,20 176,54 47,36 70,79 70,136l-160 0c0,-23 -6,-40 -20,-57 -13,-13 -36,-20 -66,-20 -27,0 -47,7 -63,17 -13,13 -20,27 -20,47 0,16 7,29 23,39 17,14 43,20 83,30 40,7 73,17 100,27 83,30 123,83 123,156 0,53 -23,96 -70,130 -43,33 -103,50 -176,50 -50,0 -93,-10 -130,-27 -39,-17 -69,-40 -89,-73 -24,-30 -34,-63 -34,-96l150 0c0,26 10,46 30,63 20,13 43,23 76,23 30,0 54,-7 67,-20 16,-10 23,-23 23,-43l0 0z"/>
   </g>
  </g>
 </g>
 <g id="Layer_x0020_1_0">
  <metadata id="CorelCorpID_1Corel-Layer"/>
  <rect class="fil3" width="18069" height="10824"/>
 </g>
</svg>
